SplineFontDB: 3.0
FontName: Bodoni-16-Medium
FullName: Bodoni* 16 Medium
FamilyName: Bodoni* 16 Medium
Weight: Medium
Copyright: Copyright (c) 2017, Owen Earl,,, (EwonRael@yahoo.com)
Version: 001.0
ItalicAngle: 0
UnderlinePosition: -408
UnderlineWidth: 204
Ascent: 3276
Descent: 820
InvalidEm: 0
LayerCount: 2
Layer: 0 0 "Back" 1
Layer: 1 0 "Fore" 0
PreferredKerning: 4
XUID: [1021 31 -699969567 16487490]
FSType: 0
OS2Version: 0
OS2_WeightWidthSlopeOnly: 0
OS2_UseTypoMetrics: 1
CreationTime: 1460762150
ModificationTime: 1573674264
PfmFamily: 17
TTFWeight: 500
TTFWidth: 5
LineGap: 0
VLineGap: 0
OS2TypoAscent: 4194
OS2TypoAOffset: 0
OS2TypoDescent: -820
OS2TypoDOffset: 0
OS2TypoLinegap: 0
OS2WinAscent: 4096
OS2WinAOffset: 0
OS2WinDescent: 1638
OS2WinDOffset: 0
HheadAscent: 4194
HheadAOffset: 0
HheadDescent: -820
HheadDOffset: 0
OS2CapHeight: 3072
OS2XHeight: 1884
OS2FamilyClass: 768
OS2Vendor: 'it* '
OS2UnicodeRanges: 00000001.00000000.00000000.00000000
Lookup: 1 0 0 "'ss02' Style Set 2 lookup 4" { "'ss02' Style Set 2 lookup 4-1"  } ['ss02' ('DFLT' <'dflt' > 'grek' <'dflt' > 'latn' <'dflt' > ) ]
Lookup: 1 0 0 "'ss03' Style Set 3 lookup 5" { "'ss03' Style Set 3 lookup 5-1"  } ['ss03' ('DFLT' <'dflt' > 'grek' <'dflt' > 'latn' <'dflt' > ) ]
Lookup: 1 0 0 "'ss01' Style Set 1 lookup 2" { "'ss01' Style Set 1 lookup 2-1"  } ['ss01' ('DFLT' <'dflt' > 'grek' <'dflt' > 'latn' <'dflt' > ) ]
Lookup: 5 0 0 "'calt' Contextual Alternates lookup 3" { "'calt' Contextual Alternates lookup 3-1"  } ['calt' ('DFLT' <'dflt' > 'grek' <'dflt' > 'latn' <'dflt' > ) ]
Lookup: 4 0 1 "'liga' Standard Ligatures lookup 0" { "'liga' Standard Ligatures lookup 0-1"  } ['liga' ('DFLT' <'dflt' > 'grek' <'dflt' > 'latn' <'dflt' > ) ]
Lookup: 258 0 0 "'kern' Horizontal Kerning lookup 0" { "kerning like they all do" [150,0,6] } ['kern' ('DFLT' <'dflt' > 'grek' <'dflt' > 'latn' <'dflt' > ) ]
MarkAttachClasses: 1
DEI: 91125
KernClass2: 30 27 "kerning like they all do"

StartChar: ampersand
Encoding: 38 38 0
GlifName: ampersand
Width: 3410
Flags: HMW
LayerCount: 2
Fore
SplineSet
1557 1824 m 9
 1526 1869 l 1
 1682 1969 1878 2154 1878 2596 c 0
 1878 2809 1815 3072 1547 3072 c 0
 1278 3072 1182 2859 1182 2652 c 0
 1182 2499 1294 2269 1470 2007 c 2
 2763 57 l 1
 3283 57 l 1
 3283 0 l 1
 2201 0 l 1
 846 2007 l 2
 740 2163 657 2368 657 2511 c 0
 657 2880 1026 3113 1552 3113 c 0
 2042 3113 2383 2908 2383 2590 c 0
 2383 2178 2005 2020 1557 1824 c 9
1132 1662 m 1
 1162 1620 l 1
 889 1472 714 1279 714 888 c 0
 714 483 975 109 1393 109 c 0
 2115 109 2767 977 2850 1856 c 1
 2908 1856 l 1
 2807 950 2158 -41 1132 -41 c 0
 536 -41 162 254 162 715 c 0
 162 1334 966 1583 1132 1662 c 1
2310 1884 m 1
 3293 1884 l 1
 3293 1827 l 1
 2310 1827 l 1
 2310 1884 l 1
EndSplineSet
EndChar

StartChar: period
Encoding: 46 46 1
GlifName: period
Width: 941
Flags: HMW
LayerCount: 2
Fore
SplineSet
164 266 m 0
 164 435 302 574 471 574 c 0
 640 574 778 435 778 266 c 0
 778 97 640 -41 471 -41 c 0
 302 -41 164 97 164 266 c 0
EndSplineSet
EndChar

StartChar: zero
Encoding: 48 48 2
GlifName: zero
Width: 2621
Flags: HMW
LayerCount: 2
Fore
SplineSet
1311 -41 m 0
 623 -41 164 654 164 1536 c 0
 164 2418 663 3113 1311 3113 c 0
 1959 3113 2458 2418 2458 1536 c 0
 2458 654 1999 -41 1311 -41 c 0
1311 3064 m 0
 865 3064 758 2332 758 1536 c 0
 758 740 823 8 1311 8 c 0
 1799 8 1864 740 1864 1536 c 0
 1864 2332 1768 3064 1311 3064 c 0
EndSplineSet
EndChar

StartChar: one
Encoding: 49 49 3
GlifName: one
Width: 1904
VWidth: 4730
Flags: HMW
LayerCount: 2
Fore
SplineSet
205 57 m 1
 1700 57 l 1
 1700 0 l 1
 205 0 l 1
 205 57 l 1
274 3072 m 1
 1249 3072 l 1
 1249 29 l 1
 737 29 l 1
 737 3015 l 1
 274 3015 l 1
 274 3072 l 1
EndSplineSet
EndChar

StartChar: two
Encoding: 50 50 4
GlifName: two
Width: 2354
VWidth: 4730
Flags: HMW
LayerCount: 2
Fore
SplineSet
2212 0 m 1
 164 0 l 1
 164 338 l 1
 1044 1126 l 2
 1389 1437 1594 1796 1594 2212 c 0
 1594 2700 1382 2988 971 2988 c 0
 561 2988 281 2669 278 2265 c 1
 322 2366 418 2446 544 2446 c 0
 708 2446 852 2328 852 2154 c 0
 852 1959 696 1836 522 1836 c 0
 348 1836 207 1964 207 2249 c 0
 207 2728 555 3113 1177 3113 c 0
 1785 3113 2126 2755 2126 2335 c 0
 2126 1895 1781 1670 1519 1448 c 2
 462 492 l 1
 2154 492 l 1
 2154 799 l 1
 2212 799 l 1
 2212 0 l 1
EndSplineSet
EndChar

StartChar: three
Encoding: 51 51 5
GlifName: three
Width: 2236
VWidth: 4730
Flags: HMW
LayerCount: 2
Fore
SplineSet
2072 829 m 0
 2072 287 1595 -41 997 -41 c 0
 384 -41 102 292 102 608 c 0
 102 807 230 930 404 930 c 0
 558 930 676 824 676 646 c 0
 676 484 537 369 387 369 c 0
 296 369 240 409 217 446 c 1
 259 263 490 42 912 42 c 0
 1379 42 1536 413 1536 829 c 0
 1536 1163 1421 1634 780 1634 c 1
 780 1675 l 1
 1788 1675 2072 1290 2072 829 c 0
780 1647 m 1
 780 1688 l 1
 1380 1688 1414 2149 1414 2421 c 0
 1414 2734 1266 3030 962 3030 c 0
 674 3030 442 2871 371 2709 c 1
 402 2749 456 2771 520 2771 c 0
 660 2771 794 2669 794 2500 c 0
 794 2310 643 2214 510 2214 c 0
 356 2214 225 2315 225 2509 c 0
 225 2835 610 3109 1028 3109 c 0
 1524 3109 1950 2862 1950 2411 c 0
 1950 2001 1746 1647 780 1647 c 1
EndSplineSet
EndChar

StartChar: four
Encoding: 52 52 6
GlifName: four
Width: 2529
VWidth: 4730
Flags: HMW
LayerCount: 2
Fore
SplineSet
2345 57 m 1
 2345 0 l 1
 1136 0 l 1
 1136 57 l 1
 1526 57 l 1
 1526 2802 l 1
 250 909 l 1
 2488 909 l 1
 2488 852 l 1
 143 852 l 1
 1638 3072 l 1
 2038 3072 l 1
 2038 57 l 1
 2345 57 l 1
EndSplineSet
Substitution2: "'ss03' Style Set 3 lookup 5-1" four.alt
EndChar

StartChar: five
Encoding: 53 53 7
GlifName: five
Width: 2119
VWidth: 4730
Flags: HMW
LayerCount: 2
Fore
SplineSet
1854 2580 m 1
 312 2580 l 1
 312 1503 l 1
 254 1503 l 1
 254 3072 l 1
 1796 3072 l 1
 1796 3297 l 1
 1854 3297 l 1
 1854 2580 l 1
223 355 m 1
 268 213 506 23 817 23 c 0
 1304 23 1444 501 1444 927 c 0
 1444 1435 1271 1808 916 1808 c 0
 612 1808 403 1635 332 1503 c 1
 282 1503 l 1
 358 1675 608 1894 1032 1894 c 0
 1610 1894 1997 1541 1997 927 c 0
 1997 385 1534 -41 885 -41 c 0
 457 -41 82 212 82 548 c 0
 82 747 217 864 376 864 c 0
 519 864 672 773 672 578 c 0
 672 404 526 287 372 287 c 0
 300 287 253 320 223 355 c 1
EndSplineSet
EndChar

StartChar: six
Encoding: 54 54 8
GlifName: six
Width: 2395
VWidth: 4730
Flags: HMW
LayerCount: 2
Fore
SplineSet
1730 1024 m 0
 1730 1624 1550 1919 1236 1919 c 0
 918 1919 747 1639 747 1147 c 1
 706 1147 l 1
 706 1643 834 2012 1346 2012 c 0
 1780 2012 2273 1720 2273 1024 c 0
 2273 410 1893 -41 1255 -41 c 0
 617 -41 205 410 205 1270 c 0
 205 2265 971 3113 1966 3113 c 1
 1966 3064 l 1
 1243 3064 754 2239 754 1455 c 1
 747 1147 l 1
 747 547 883 16 1268 16 c 0
 1653 16 1730 506 1730 1024 c 0
EndSplineSet
EndChar

StartChar: seven
Encoding: 55 55 9
GlifName: seven
Width: 2139
VWidth: 4730
Flags: HMW
LayerCount: 2
Fore
SplineSet
647 342 m 0
 647 666 972 1073 1226 1517 c 0
 1378 1789 1585 2204 1764 2560 c 1
 221 2560 l 1
 221 2253 l 1
 164 2253 l 1
 164 3072 l 1
 2100 3072 l 1
 2100 3072 1600 2078 1299 1524 c 0
 1104 1158 1052 1047 1052 881 c 0
 1052 603 1303 541 1303 289 c 0
 1303 107 1189 -41 978 -41 c 0
 787 -41 647 62 647 342 c 0
EndSplineSet
EndChar

StartChar: eight
Encoding: 56 56 10
GlifName: eight
Width: 2354
VWidth: 4730
Flags: HMW
LayerCount: 2
Fore
SplineSet
778 2294 m 0
 778 1899 873 1609 1177 1609 c 0
 1481 1609 1577 1899 1577 2294 c 0
 1577 2679 1481 3050 1177 3050 c 0
 873 3050 778 2679 778 2294 c 0
246 2294 m 0
 246 2745 569 3113 1177 3113 c 0
 1785 3113 2110 2745 2110 2294 c 0
 2110 1843 1785 1563 1177 1563 c 0
 569 1563 246 1843 246 2294 c 0
696 778 m 0
 696 372 822 22 1177 22 c 0
 1532 22 1658 372 1658 778 c 0
 1658 1184 1532 1545 1177 1545 c 0
 822 1545 696 1184 696 778 c 0
164 778 m 0
 164 1270 487 1594 1177 1594 c 0
 1867 1594 2192 1270 2192 778 c 0
 2192 286 1867 -41 1177 -41 c 0
 487 -41 164 286 164 778 c 0
EndSplineSet
EndChar

StartChar: A
Encoding: 65 65 12
GlifName: A_
Width: 3107
Flags: HMW
LayerCount: 2
Fore
SplineSet
77 57 m 1
 978 57 l 1
 978 0 l 1
 77 0 l 1
 77 57 l 1
1756 57 m 1
 3046 57 l 1
 3046 0 l 1
 1756 0 l 1
 1756 57 l 1
791 1029 m 1
 2125 1029 l 1
 2125 975 l 1
 791 975 l 1
 791 1029 l 1
1354 2506 m 1
 482 0 l 1
 413 0 l 1
 1517 3133 l 1
 1674 3133 l 1
 2760 0 l 1
 2166 0 l 1
 1354 2506 l 1
EndSplineSet
EndChar

StartChar: B
Encoding: 66 66 13
GlifName: B_
Width: 2718
Flags: HMW
LayerCount: 2
Fore
SplineSet
1367 1561 m 2
 896 1561 l 1
 896 1606 l 1
 1326 1606 l 2
 1627 1606 1900 1786 1900 2273 c 0
 1900 2760 1627 3015 1326 3015 c 2
 77 3015 l 1
 77 3072 l 1
 1367 3072 l 2
 2016 3072 2432 2846 2432 2314 c 0
 2432 1792 2057 1561 1367 1561 c 2
446 3072 m 1
 958 3072 l 1
 958 0 l 1
 446 0 l 1
 446 3072 l 1
1449 0 m 2
 77 0 l 1
 77 57 l 1
 1367 57 l 2
 1709 57 1982 373 1982 860 c 0
 1982 1347 1709 1548 1367 1548 c 2
 896 1548 l 1
 896 1593 l 1
 1449 1593 l 2
 2057 1593 2555 1392 2555 840 c 0
 2555 236 2139 0 1449 0 c 2
EndSplineSet
EndChar

StartChar: C
Encoding: 67 67 14
GlifName: C_
Width: 2810
Flags: HMW
LayerCount: 2
Fore
SplineSet
2566 3072 m 1
 2606 3072 l 1
 2606 2201 l 1
 2590 2298 2328 2780 2271 2837 c 1
 2566 3072 l 1
2606 2201 m 1
 2548 2201 l 1
 2452 2695 2095 3036 1654 3036 c 0
 992 3036 773 2281 773 1536 c 0
 773 791 992 36 1654 36 c 0
 2187 36 2498 417 2590 871 c 1
 2647 871 l 1
 2585 347 2199 -41 1613 -41 c 0
 741 -41 179 623 179 1536 c 0
 179 2449 741 3113 1613 3113 c 0
 2137 3113 2534 2725 2606 2201 c 1
2647 871 m 1
 2647 0 l 1
 2606 0 l 1
 2322 262 l 1
 2377 317 2634 776 2647 871 c 1
EndSplineSet
EndChar

StartChar: D
Encoding: 68 68 15
GlifName: D_
Width: 2984
Flags: HMW
LayerCount: 2
Fore
SplineSet
446 3072 m 1
 958 3072 l 1
 958 0 l 1
 446 0 l 1
 446 3072 l 1
1306 0 m 2
 77 0 l 1
 77 57 l 1
 1306 57 l 2
 1998 57 2227 760 2227 1536 c 0
 2227 2312 1958 3015 1306 3015 c 2
 77 3015 l 1
 77 3072 l 1
 1306 3072 l 2
 2250 3072 2821 2428 2821 1536 c 0
 2821 644 2209 0 1306 0 c 2
EndSplineSet
EndChar

StartChar: E
Encoding: 69 69 16
GlifName: E_
Width: 2483
Flags: HMW
LayerCount: 2
Fore
SplineSet
2303 922 m 1
 2360 922 l 1
 2360 0 l 1
 77 0 l 1
 77 57 l 1
 1500 57 l 2
 2061 57 2272 402 2303 922 c 1
446 3072 m 1
 958 3072 l 1
 958 0 l 1
 446 0 l 1
 446 3072 l 1
77 3072 m 1
 2319 3072 l 1
 2319 2232 l 1
 2262 2232 l 1
 2231 2670 2020 3015 1541 3015 c 2
 77 3015 l 1
 77 3072 l 1
1597 1108 m 1
 1566 1382 1385 1561 1152 1561 c 2
 845 1561 l 1
 845 1618 l 1
 1152 1618 l 2
 1385 1618 1566 1776 1597 2050 c 1
 1654 2050 l 1
 1654 1108 l 1
 1597 1108 l 1
EndSplineSet
EndChar

StartChar: F
Encoding: 70 70 17
GlifName: F_
Width: 2390
Flags: HMW
LayerCount: 2
Fore
SplineSet
77 3072 m 1
 2268 3072 l 1
 2268 2232 l 1
 2211 2232 l 1
 2180 2670 1989 3015 1520 3015 c 2
 77 3015 l 1
 77 3072 l 1
77 57 m 1
 1367 57 l 1
 1367 0 l 1
 77 0 l 1
 77 57 l 1
446 3072 m 1
 958 3072 l 1
 958 0 l 1
 446 0 l 1
 446 3072 l 1
1617 1057 m 1
 1586 1331 1437 1499 1101 1499 c 2
 835 1499 l 1
 835 1556 l 1
 1101 1556 l 2
 1437 1556 1586 1704 1617 1978 c 1
 1674 1978 l 1
 1674 1057 l 1
 1617 1057 l 1
EndSplineSet
EndChar

StartChar: G
Encoding: 71 71 18
GlifName: G_
Width: 3015
Flags: HMW
LayerCount: 2
Fore
SplineSet
2648 2201 m 1
 2617 2353 2376 2776 2290 2850 c 1
 2606 3072 l 1
 2648 3072 l 1
 2648 2201 l 1
1766 1196 m 1
 2975 1196 l 1
 2975 1139 l 1
 1766 1139 l 1
 1766 1196 l 1
2196 1155 m 1
 2750 1155 l 1
 2750 656 l 1
 2555 388 2240 -41 1572 -41 c 0
 689 -41 179 602 179 1536 c 0
 179 2470 802 3113 1633 3113 c 0
 2157 3113 2630 2705 2648 2201 c 1
 2590 2201 l 1
 2530 2651 2142 3035 1682 3035 c 0
 1020 3035 773 2281 773 1536 c 0
 773 791 931 22 1572 22 c 0
 1998 22 2145 381 2196 512 c 1
 2196 1155 l 1
EndSplineSet
EndChar

StartChar: H
Encoding: 72 72 19
GlifName: H_
Width: 3127
Flags: HMW
LayerCount: 2
Fore
SplineSet
876 1544 m 1
 2268 1544 l 1
 2268 1487 l 1
 876 1487 l 1
 876 1544 l 1
1797 57 m 1
 3067 57 l 1
 3067 0 l 1
 1797 0 l 1
 1797 57 l 1
77 57 m 1
 1346 57 l 1
 1346 0 l 1
 77 0 l 1
 77 57 l 1
1797 3072 m 1
 3067 3072 l 1
 3067 3015 l 1
 1797 3015 l 1
 1797 3072 l 1
77 3072 m 1
 1346 3072 l 1
 1346 3015 l 1
 77 3015 l 1
 77 3072 l 1
2186 3072 m 1
 2698 3072 l 1
 2698 0 l 1
 2186 0 l 1
 2186 3072 l 1
446 3072 m 1
 958 3072 l 1
 958 0 l 1
 446 0 l 1
 446 3072 l 1
EndSplineSet
EndChar

StartChar: I
Encoding: 73 73 20
GlifName: I_
Width: 1591
Flags: HMW
LayerCount: 2
Fore
SplineSet
77 57 m 1
 1531 57 l 1
 1531 0 l 1
 77 0 l 1
 77 57 l 1
77 3072 m 1
 1531 3072 l 1
 1531 3015 l 1
 77 3015 l 1
 77 3072 l 1
527 3072 m 1
 1040 3072 l 1
 1040 0 l 1
 527 0 l 1
 527 3072 l 1
EndSplineSet
EndChar

StartChar: J
Encoding: 74 74 21
GlifName: J_
Width: 1964
Flags: HMW
LayerCount: 2
Fore
SplineSet
449 3072 m 1
 1903 3072 l 1
 1903 3015 l 1
 449 3015 l 1
 449 3072 l 1
982 3072 m 1
 1494 3072 l 1
 1494 696 l 1
 1371 358 1181 -123 634 -123 c 0
 268 -123 56 133 56 389 c 0
 56 592 198 716 362 716 c 0
 505 716 652 613 652 414 c 0
 652 230 514 114 345 114 c 0
 290 114 241 133 220 146 c 1
 280 57 410 -65 626 -65 c 0
 929 -65 982 205 982 778 c 2
 982 3072 l 1
EndSplineSet
Substitution2: "'ss02' Style Set 2 lookup 4-1" J.alt
EndChar

StartChar: K
Encoding: 75 75 22
GlifName: K_
Width: 2964
Flags: HMW
LayerCount: 2
Fore
SplineSet
77 57 m 1
 1346 57 l 1
 1346 0 l 1
 77 0 l 1
 77 57 l 1
77 3072 m 1
 1367 3072 l 1
 1367 3015 l 1
 77 3015 l 1
 77 3072 l 1
446 3072 m 1
 958 3072 l 1
 958 0 l 1
 446 0 l 1
 446 3072 l 1
618 889 m 1
 536 889 l 1
 2272 3064 l 1
 2355 3064 l 1
 618 889 l 1
1572 57 m 1
 2944 57 l 1
 2944 0 l 1
 1572 0 l 1
 1572 57 l 1
2759 3015 m 1
 1776 3015 l 1
 1776 3072 l 1
 2759 3072 l 1
 2759 3015 l 1
2624 0 m 1
 2010 0 l 1
 1120 1576 l 1
 1460 1966 l 1
 2624 0 l 1
EndSplineSet
EndChar

StartChar: L
Encoding: 76 76 23
GlifName: L_
Width: 2426
Flags: HMW
LayerCount: 2
Fore
SplineSet
446 3072 m 1
 958 3072 l 1
 958 0 l 1
 446 0 l 1
 446 3072 l 1
77 3072 m 1
 1326 3072 l 1
 1326 3015 l 1
 77 3015 l 1
 77 3072 l 1
2345 0 m 1
 77 0 l 1
 77 57 l 1
 1485 57 l 2
 2107 57 2256 402 2287 922 c 1
 2345 922 l 1
 2345 0 l 1
EndSplineSet
EndChar

StartChar: M
Encoding: 77 77 24
GlifName: M_
Width: 3496
Flags: HMW
LayerCount: 2
Fore
SplineSet
3436 3072 m 1
 3436 3015 l 1
 3149 3015 l 1
 3149 0 l 1
 2637 0 l 1
 2637 3072 l 1
 3436 3072 l 1
97 57 m 1
 745 57 l 1
 745 0 l 1
 97 0 l 1
 97 57 l 1
2309 57 m 1
 3436 57 l 1
 3436 0 l 1
 2309 0 l 1
 2309 57 l 1
1788 704 m 1
 2604 3072 l 1
 2666 3072 l 1
 1598 -41 l 1
 1535 -41 l 1
 396 3072 l 1
 913 3072 l 1
 1788 704 l 1
388 3015 m 1
 77 3015 l 1
 77 3072 l 1
 450 3072 l 1
 450 0 l 1
 388 0 l 1
 388 3015 l 1
EndSplineSet
EndChar

StartChar: N
Encoding: 78 78 25
GlifName: N_
Width: 3038
Flags: HMW
LayerCount: 2
Fore
SplineSet
2486 3072 m 1
 2548 3072 l 1
 2548 -41 l 1
 2453 -41 l 1
 487 3072 l 1
 1101 3072 l 1
 2486 842 l 1
 2486 3072 l 1
2026 3072 m 1
 2978 3072 l 1
 2978 3015 l 1
 2026 3015 l 1
 2026 3072 l 1
77 57 m 1
 1035 57 l 1
 1035 0 l 1
 77 0 l 1
 77 57 l 1
499 3015 m 1
 77 3015 l 1
 77 3072 l 1
 560 3072 l 1
 560 0 l 1
 499 0 l 1
 499 3015 l 1
EndSplineSet
EndChar

StartChar: O
Encoding: 79 79 26
GlifName: O_
Width: 3045
Flags: HMW
LayerCount: 2
Fore
SplineSet
1531 -41 m 0
 679 -41 179 654 179 1536 c 0
 179 2418 720 3113 1531 3113 c 0
 2342 3113 2883 2418 2883 1536 c 0
 2883 654 2383 -41 1531 -41 c 0
1531 3064 m 0
 931 3064 773 2332 773 1536 c 0
 773 740 890 8 1531 8 c 0
 2172 8 2289 740 2289 1536 c 0
 2289 2332 2131 3064 1531 3064 c 0
EndSplineSet
EndChar

StartChar: P
Encoding: 80 80 27
GlifName: P_
Width: 2626
Flags: HMW
LayerCount: 2
Fore
SplineSet
446 3072 m 1
 958 3072 l 1
 958 0 l 1
 446 0 l 1
 446 3072 l 1
77 57 m 1
 1326 57 l 1
 1326 0 l 1
 77 0 l 1
 77 57 l 1
1387 1364 m 2
 824 1364 l 1
 824 1421 l 1
 1346 1421 l 2
 1718 1421 1910 1847 1910 2212 c 0
 1910 2577 1718 3015 1346 3015 c 2
 77 3015 l 1
 77 3072 l 1
 1387 3072 l 2
 2149 3072 2483 2744 2483 2212 c 0
 2483 1680 2149 1364 1387 1364 c 2
EndSplineSet
EndChar

StartChar: Q
Encoding: 81 81 28
GlifName: Q_
Width: 3045
Flags: HMW
LayerCount: 2
Fore
SplineSet
1531 -41 m 0
 679 -41 179 654 179 1536 c 0
 179 2418 720 3113 1531 3113 c 0
 2342 3113 2883 2418 2883 1536 c 0
 2883 654 2383 -41 1531 -41 c 0
1531 3064 m 0
 931 3064 773 2332 773 1536 c 0
 773 740 890 8 1531 8 c 0
 2172 8 2289 740 2289 1536 c 0
 2289 2332 2131 3064 1531 3064 c 0
2288 -967 m 1
 2288 -1024 l 1
 1344 -1024 1224 -753 1224 7 c 1
 1348 -21 1695 -21 1817 7 c 1
 1817 -738 1870 -967 2288 -967 c 1
EndSplineSet
EndChar

StartChar: R
Encoding: 82 82 29
GlifName: R_
Width: 2943
Flags: HMW
LayerCount: 2
Fore
SplineSet
1470 1569 m 2
 814 1569 l 1
 814 1606 l 1
 1418 1606 l 2
 1811 1606 2022 1848 2022 2314 c 0
 2022 2780 1811 3015 1418 3015 c 2
 77 3015 l 1
 77 3072 l 1
 1470 3072 l 2
 2119 3072 2555 2846 2555 2314 c 0
 2555 1782 2160 1569 1470 1569 c 2
77 57 m 1
 1449 57 l 1
 1449 0 l 1
 77 0 l 1
 77 57 l 1
506 3072 m 1
 1019 3072 l 1
 1019 0 l 1
 506 0 l 1
 506 3072 l 1
2903 46 m 1
 2837 9 2671 -25 2473 -25 c 0
 1437 -25 2416 1548 1408 1548 c 2
 814 1548 l 1
 814 1577 l 1
 1613 1577 l 2
 2987 1577 2171 53 2675 53 c 0
 2761 53 2829 74 2886 99 c 1
 2903 46 l 1
EndSplineSet
Substitution2: "'ss01' Style Set 1 lookup 2-1" R.alt
EndChar

StartChar: S
Encoding: 83 83 30
GlifName: S_
Width: 2369
Flags: HMW
LayerCount: 2
Fore
SplineSet
2043 2232 m 1
 1986 2232 l 1
 1863 2748 1555 3045 1136 3045 c 0
 774 3045 578 2845 578 2541 c 0
 578 1814 2207 1999 2207 850 c 0
 2207 298 1802 -61 1224 -61 c 0
 585 -61 308 368 179 860 c 1
 237 860 l 1
 354 426 635 2 1190 2 c 0
 1604 2 1861 235 1861 622 c 0
 1861 1431 220 1198 220 2324 c 0
 220 2806 634 3113 1099 3113 c 0
 1592 3113 1920 2810 2043 2232 c 1
2002 3113 m 1
 2043 3113 l 1
 2043 2232 l 1
 2017 2319 1785 2789 1728 2850 c 1
 2002 3113 l 1
220 -41 m 1
 179 -41 l 1
 179 860 l 1
 215 756 446 298 495 242 c 1
 220 -41 l 1
EndSplineSet
EndChar

StartChar: T
Encoding: 84 84 31
GlifName: T_
Width: 2677
Flags: HMW
LayerCount: 2
Fore
SplineSet
640 57 m 1
 2054 57 l 1
 2054 0 l 1
 640 0 l 1
 640 57 l 1
1090 3046 m 1
 1602 3046 l 1
 1602 0 l 1
 1090 0 l 1
 1090 3046 l 1
1941 3015 m 2
 752 3015 l 2
 294 3015 165 2640 134 2120 c 1
 77 2120 l 1
 77 3072 l 1
 2616 3072 l 1
 2616 2120 l 1
 2559 2120 l 1
 2528 2640 2399 3015 1941 3015 c 2
EndSplineSet
EndChar

StartChar: U
Encoding: 85 85 32
GlifName: U_
Width: 2902
Flags: HMW
LayerCount: 2
Fore
SplineSet
2043 3072 m 1
 2842 3072 l 1
 2842 3015 l 1
 2043 3015 l 1
 2043 3072 l 1
77 3072 m 1
 1367 3072 l 1
 1367 3015 l 1
 77 3015 l 1
 77 3072 l 1
2403 3072 m 1
 2460 3072 l 1
 2460 942 l 2
 2460 266 2168 -61 1511 -61 c 0
 771 -61 446 233 446 942 c 2
 446 3072 l 1
 958 3072 l 1
 958 983 l 2
 958 442 1072 21 1631 21 c 0
 2096 21 2403 302 2403 942 c 2
 2403 3072 l 1
EndSplineSet
EndChar

StartChar: V
Encoding: 86 86 33
GlifName: V_
Width: 3066
Flags: HMW
LayerCount: 2
Fore
SplineSet
3026 3015 m 1
 2125 3015 l 1
 2125 3072 l 1
 3026 3072 l 1
 3026 3015 l 1
1387 3015 m 1
 56 3015 l 1
 56 3072 l 1
 1387 3072 l 1
 1387 3015 l 1
1748 566 m 1
 2633 3072 l 1
 2702 3072 l 1
 1586 -61 l 1
 1429 -61 l 1
 343 3072 l 1
 937 3072 l 1
 1748 566 l 1
EndSplineSet
EndChar

StartChar: W
Encoding: 87 87 34
GlifName: W_
Width: 4254
Flags: HMW
LayerCount: 2
Fore
SplineSet
2311 1946 m 1
 1600 -41 l 1
 1449 -41 l 1
 400 3072 l 1
 966 3072 l 1
 1774 644 l 1
 2274 2033 l 1
 2311 1946 l 1
2472 1926 m 1
 2428 1994 l 1
 2808 3072 l 1
 2876 3072 l 1
 2472 1926 l 1
4214 3015 m 1
 3394 3015 l 1
 3394 3072 l 1
 4214 3072 l 1
 4214 3015 l 1
2126 3072 m 1
 2934 644 l 1
 3795 3072 l 1
 3863 3072 l 1
 2760 -41 l 1
 2641 -41 l 1
 1591 3072 l 1
 2126 3072 l 1
3200 3015 m 1
 56 3015 l 1
 56 3072 l 1
 3200 3072 l 1
 3200 3015 l 1
EndSplineSet
EndChar

StartChar: X
Encoding: 88 88 35
GlifName: X_
Width: 3127
Flags: HMW
LayerCount: 2
Fore
SplineSet
1598 1544 m 1
 1516 1544 l 1
 2440 3064 l 1
 2510 3064 l 1
 1598 1544 l 1
523 0 m 1
 446 0 l 1
 1535 1708 l 1
 1613 1708 l 1
 523 0 l 1
1818 57 m 1
 3088 57 l 1
 3088 0 l 1
 1818 0 l 1
 1818 57 l 1
56 57 m 1
 1039 57 l 1
 1039 0 l 1
 56 0 l 1
 56 57 l 1
1470 3015 m 1
 200 3015 l 1
 200 3072 l 1
 1470 3072 l 1
 1470 3015 l 1
2862 3015 m 1
 1961 3015 l 1
 1961 3072 l 1
 2862 3072 l 1
 2862 3015 l 1
2825 0 m 1
 2211 0 l 1
 446 3072 l 1
 1044 3072 l 1
 2825 0 l 1
EndSplineSet
EndChar

StartChar: Y
Encoding: 89 89 36
GlifName: Y_
Width: 2964
Flags: HMW
LayerCount: 2
Fore
SplineSet
2923 3015 m 1
 2063 3015 l 1
 2063 3072 l 1
 2923 3072 l 1
 2923 3015 l 1
1367 3015 m 1
 56 3015 l 1
 56 3072 l 1
 1367 3072 l 1
 1367 3015 l 1
906 57 m 1
 2196 57 l 1
 2196 0 l 1
 906 0 l 1
 906 57 l 1
1754 1635 m 1
 2554 3064 l 1
 2623 3064 l 1
 1787 1569 l 1
 1787 0 l 1
 1275 0 l 1
 1275 1475 l 1
 315 3072 l 1
 908 3072 l 1
 1754 1635 l 1
EndSplineSet
EndChar

StartChar: Z
Encoding: 90 90 37
GlifName: Z_
Width: 2410
Flags: HMW
LayerCount: 2
Fore
SplineSet
138 3072 m 1
 2227 3072 l 1
 2227 3015 l 1
 630 57 l 1
 1469 57 l 2
 2030 57 2170 289 2211 809 c 1
 2268 809 l 1
 2268 0 l 1
 56 0 l 1
 56 57 l 1
 1654 3015 l 1
 937 3015 l 2
 376 3015 237 2783 196 2345 c 1
 138 2345 l 1
 138 3072 l 1
EndSplineSet
EndChar

StartChar: a
Encoding: 97 97 38
GlifName: a
Width: 2270
VWidth: 4730
Flags: HMW
LayerCount: 2
Fore
SplineSet
2259 258 m 1
 2165 53 1973 -41 1766 -41 c 0
 1542 -41 1337 45 1337 309 c 2
 1337 1249 l 2
 1337 1543 1282 1848 964 1848 c 0
 772 1848 624 1784 559 1722 c 1
 713 1751 866 1659 866 1497 c 0
 866 1323 706 1233 573 1233 c 0
 419 1233 309 1332 309 1489 c 0
 309 1748 665 1917 1059 1917 c 0
 1704 1917 1808 1601 1808 1249 c 2
 1808 227 l 2
 1808 139 1862 78 1960 78 c 0
 2033 78 2139 127 2218 279 c 1
 2259 258 l 1
1063 1057 m 2
 1550 1057 l 1
 1550 999 l 1
 1134 999 l 2
 854 999 686 783 686 517 c 0
 686 285 773 116 955 116 c 0
 1153 116 1337 293 1337 741 c 1
 1382 741 l 1
 1382 233 1174 -41 719 -41 c 0
 395 -41 166 160 166 463 c 0
 166 807 469 1057 1063 1057 c 2
EndSplineSet
EndChar

StartChar: b
Encoding: 98 98 39
GlifName: b
Width: 2482
VWidth: 4730
Flags: HMW
LayerCount: 2
Fore
SplineSet
788 942 m 0
 788 1565 1031 1921 1471 1921 c 0
 1917 1921 2340 1556 2340 942 c 0
 2340 328 1917 -41 1471 -41 c 0
 1032 -41 788 319 788 942 c 0
832 942 m 0
 832 349 1091 55 1360 55 c 0
 1653 55 1798 372 1798 942 c 0
 1798 1512 1653 1825 1360 1825 c 0
 1091 1825 832 1535 832 942 c 0
362 3015 m 1
 84 3015 l 1
 84 3072 l 1
 832 3072 l 1
 832 0 l 1
 84 0 l 1
 84 57 l 1
 362 57 l 1
 362 3015 l 1
EndSplineSet
EndChar

StartChar: c
Encoding: 99 99 40
GlifName: c
Width: 2060
VWidth: 4730
Flags: HMW
LayerCount: 2
Fore
SplineSet
1722 1578 m 1
 1671 1724 1457 1862 1201 1862 c 0
 765 1862 698 1327 698 942 c 0
 698 475 796 35 1197 35 c 0
 1518 35 1721 267 1826 586 c 1
 1888 586 l 1
 1782 230 1554 -41 1120 -41 c 0
 552 -41 146 308 146 942 c 0
 146 1494 496 1925 1145 1925 c 0
 1573 1925 1871 1687 1871 1382 c 0
 1871 1194 1746 1092 1592 1092 c 0
 1459 1092 1306 1167 1306 1367 c 0
 1306 1541 1446 1633 1575 1633 c 0
 1648 1633 1703 1604 1722 1578 c 1
EndSplineSet
EndChar

StartChar: d
Encoding: 100 100 41
GlifName: d
Width: 2482
VWidth: 4730
Flags: HMW
LayerCount: 2
Fore
SplineSet
1698 942 m 0
 1698 319 1454 -41 1014 -41 c 0
 568 -41 146 328 146 942 c 0
 146 1556 568 1921 1014 1921 c 0
 1453 1921 1698 1565 1698 942 c 0
1653 942 m 0
 1653 1548 1385 1825 1122 1825 c 0
 829 1825 688 1518 688 942 c 0
 688 366 836 62 1129 62 c 0
 1392 62 1653 336 1653 942 c 0
2401 57 m 1
 2401 0 l 1
 1653 0 l 1
 1653 3015 l 1
 1378 3015 l 1
 1378 3072 l 1
 2124 3072 l 1
 2124 57 l 1
 2401 57 l 1
EndSplineSet
EndChar

StartChar: e
Encoding: 101 101 42
GlifName: e
Width: 2120
VWidth: 4730
Flags: HMW
LayerCount: 2
Fore
SplineSet
420 1040 m 1
 420 1098 l 1
 1465 1098 l 1
 1464 1414 1427 1868 1113 1868 c 0
 769 1868 678 1429 678 962 c 0
 678 464 783 25 1199 25 c 0
 1572 25 1835 271 1937 586 c 1
 1991 586 l 1
 1885 230 1601 -41 1125 -41 c 0
 568 -41 146 318 146 942 c 0
 146 1566 556 1925 1113 1925 c 0
 1723 1925 1987 1486 1987 1040 c 1
 420 1040 l 1
EndSplineSet
EndChar

StartChar: f
Encoding: 102 102 43
GlifName: f
Width: 1529
VWidth: 4730
Flags: HMW
LayerCount: 2
Fore
SplineSet
64 57 m 1
 1363 57 l 1
 1363 0 l 1
 64 0 l 1
 64 57 l 1
64 1884 m 1
 1445 1884 l 1
 1445 1827 l 1
 64 1827 l 1
 64 1884 l 1
1724 2851 m 1
 1684 2937 1576 3056 1329 3056 c 0
 1001 3056 884 2732 884 2212 c 2
 884 0 l 1
 423 0 l 1
 423 2097 l 2
 423 2654 759 3113 1322 3113 c 0
 1664 3113 1857 2889 1857 2676 c 0
 1857 2488 1736 2382 1582 2382 c 0
 1449 2382 1302 2465 1302 2647 c 0
 1302 2825 1432 2917 1586 2917 c 0
 1650 2917 1707 2890 1724 2851 c 1
EndSplineSet
EndChar

StartChar: g
Encoding: 103 103 44
GlifName: g
Width: 2436
VWidth: 4730
Flags: HMW
LayerCount: 2
Fore
SplineSet
215 296 m 0
 215 612 665 711 1032 711 c 1
 1028 685 l 1
 852 685 535 619 535 454 c 0
 535 318 717 314 942 314 c 0
 1085 314 1149 318 1264 318 c 0
 1571 318 1927 221 1927 -336 c 0
 1927 -832 1518 -1065 1016 -1065 c 0
 543 -1065 84 -911 84 -526 c 0
 84 -157 496 -53 680 -53 c 2
 708 -53 l 1
 544 -143 524 -315 524 -425 c 0
 524 -724 682 -998 1054 -998 c 0
 1438 -998 1758 -830 1758 -459 c 0
 1758 -216 1548 -88 1282 -88 c 0
 1186 -88 967 -88 877 -88 c 0
 508 -88 215 11 215 296 c 0
678 1290 m 0
 678 966 698 719 971 719 c 0
 1172 719 1264 966 1264 1290 c 0
 1264 1614 1172 1868 971 1868 c 0
 770 1868 678 1614 678 1290 c 0
187 1290 m 0
 187 1741 608 1925 971 1925 c 0
 1334 1925 1755 1741 1755 1290 c 0
 1755 839 1334 662 971 662 c 0
 608 662 187 839 187 1290 c 0
2274 1699 m 1
 2243 1789 2155 1847 2017 1847 c 0
 1842 1847 1618 1745 1536 1389 c 1
 1490 1421 l 1
 1572 1794 1833 1905 2017 1905 c 0
 2257 1905 2377 1744 2377 1588 c 0
 2377 1384 2254 1317 2142 1317 c 0
 2030 1317 1912 1391 1912 1547 c 0
 1912 1672 2004 1765 2134 1765 c 0
 2203 1765 2257 1733 2274 1699 c 1
EndSplineSet
EndChar

StartChar: h
Encoding: 104 104 45
GlifName: h
Width: 2440
VWidth: 4730
Flags: HMW
LayerCount: 2
Fore
SplineSet
1611 1269 m 2
 1611 1613 1547 1799 1347 1799 c 0
 956 1799 832 1315 832 913 c 1
 788 907 l 1
 788 1319 877 1925 1500 1925 c 0
 1969 1925 2082 1663 2082 1307 c 2
 2082 0 l 1
 1611 0 l 1
 1611 1269 l 2
1364 57 m 1
 2356 57 l 1
 2356 0 l 1
 1364 0 l 1
 1364 57 l 1
84 57 m 1
 1076 57 l 1
 1076 0 l 1
 84 0 l 1
 84 57 l 1
362 3015 m 1
 84 3015 l 1
 84 3072 l 1
 832 3072 l 1
 832 0 l 1
 362 0 l 1
 362 3015 l 1
EndSplineSet
EndChar

StartChar: i
Encoding: 105 105 46
GlifName: i
Width: 1216
VWidth: 4730
Flags: HMW
LayerCount: 2
Fore
SplineSet
105 57 m 1
 1127 57 l 1
 1127 0 l 1
 105 0 l 1
 105 57 l 1
280 2816 m 0
 280 2982 410 3113 576 3113 c 0
 742 3113 873 2982 873 2816 c 0
 873 2650 742 2519 576 2519 c 0
 410 2519 280 2650 280 2816 c 0
382 1827 m 1
 105 1827 l 1
 105 1884 l 1
 853 1884 l 1
 853 0 l 1
 382 0 l 1
 382 1827 l 1
EndSplineSet
EndChar

StartChar: j
Encoding: 106 106 47
GlifName: j
Width: 1228
VWidth: 4730
Flags: HMW
LayerCount: 2
Fore
SplineSet
349 2816 m 0
 349 2982 480 3113 646 3113 c 0
 812 3113 943 2982 943 2816 c 0
 943 2650 812 2519 646 2519 c 0
 480 2519 349 2650 349 2816 c 0
914 1884 m 1
 914 -49 l 2
 914 -586 700 -1065 148 -1065 c 0
 -204 -1065 -417 -853 -417 -601 c 0
 -417 -413 -282 -304 -132 -304 c 0
 1 -304 148 -382 148 -566 c 0
 148 -745 16 -836 -159 -836 c 0
 -217 -836 -266 -798 -271 -762 c 1
 -262 -863 -109 -1002 116 -1002 c 0
 516 -1002 442 -437 442 83 c 2
 444 1827 l 1
 84 1827 l 1
 84 1884 l 1
 914 1884 l 1
EndSplineSet
EndChar

StartChar: k
Encoding: 107 107 48
GlifName: k
Width: 2483
VWidth: 4730
Flags: HMW
LayerCount: 2
Fore
SplineSet
2289 0 m 1
 1703 0 l 1
 840 1079 l 1
 1914 1884 l 1
 2005 1884 l 1
 1242 1295 l 1
 2289 0 l 1
1391 57 m 1
 2444 57 l 1
 2444 0 l 1
 1391 0 l 1
 1391 57 l 1
2274 1827 m 1
 1382 1827 l 1
 1382 1884 l 1
 2274 1884 l 1
 2274 1827 l 1
84 57 m 1
 1170 57 l 1
 1170 0 l 1
 84 0 l 1
 84 57 l 1
444 3015 m 1
 84 3015 l 1
 84 3072 l 1
 914 3072 l 1
 914 0 l 1
 444 0 l 1
 444 3015 l 1
EndSplineSet
EndChar

StartChar: l
Encoding: 108 108 49
GlifName: l
Width: 1354
VWidth: 4730
Flags: HMW
LayerCount: 2
Fore
SplineSet
84 57 m 1
 1270 57 l 1
 1270 0 l 1
 84 0 l 1
 84 57 l 1
444 3015 m 1
 84 3015 l 1
 84 3072 l 1
 914 3072 l 1
 914 0 l 1
 444 0 l 1
 444 3015 l 1
EndSplineSet
EndChar

StartChar: m
Encoding: 109 109 50
GlifName: m
Width: 3525
VWidth: 4730
Flags: HMW
LayerCount: 2
Fore
SplineSet
2000 1307 m 2
 2000 0 l 1
 1529 0 l 1
 1529 1269 l 2
 1529 1613 1492 1806 1301 1806 c 0
 959 1806 832 1320 832 913 c 1
 788 907 l 1
 788 1319 873 1925 1453 1925 c 0
 1860 1925 2000 1663 2000 1307 c 2
84 57 m 1
 1072 57 l 1
 1072 0 l 1
 84 0 l 1
 84 57 l 1
1288 57 m 1
 2238 57 l 1
 2238 0 l 1
 1288 0 l 1
 1288 57 l 1
2454 57 m 1
 3442 57 l 1
 3442 0 l 1
 2454 0 l 1
 2454 57 l 1
362 1827 m 1
 84 1827 l 1
 84 1884 l 1
 832 1884 l 1
 832 0 l 1
 362 0 l 1
 362 1827 l 1
3167 1307 m 2
 3167 0 l 1
 2696 0 l 1
 2696 1269 l 2
 2696 1613 2641 1806 2449 1806 c 0
 2095 1806 2000 1320 2000 913 c 1
 1950 907 l 1
 1950 1319 1993 1925 2598 1925 c 0
 3005 1925 3167 1663 3167 1307 c 2
EndSplineSet
EndChar

StartChar: n
Encoding: 110 110 51
GlifName: n
Width: 2440
VWidth: 4730
Flags: HMW
LayerCount: 2
Fore
SplineSet
1611 1269 m 2
 1611 1613 1547 1799 1347 1799 c 0
 981 1799 832 1315 832 913 c 1
 788 907 l 1
 788 1319 899 1925 1500 1925 c 0
 1951 1925 2082 1663 2082 1307 c 2
 2082 0 l 1
 1611 0 l 1
 1611 1269 l 2
1364 57 m 1
 2356 57 l 1
 2356 0 l 1
 1364 0 l 1
 1364 57 l 1
84 57 m 1
 1076 57 l 1
 1076 0 l 1
 84 0 l 1
 84 57 l 1
362 1827 m 1
 84 1827 l 1
 84 1884 l 1
 832 1884 l 1
 832 0 l 1
 362 0 l 1
 362 1827 l 1
EndSplineSet
EndChar

StartChar: o
Encoding: 111 111 52
GlifName: o
Width: 2228
VWidth: 4730
Flags: HMW
LayerCount: 2
Fore
SplineSet
668 942 m 0
 668 506 740 16 1114 16 c 0
 1488 16 1561 506 1561 942 c 0
 1561 1378 1488 1868 1114 1868 c 0
 740 1868 668 1378 668 942 c 0
146 942 m 0
 146 1474 516 1925 1114 1925 c 0
 1712 1925 2083 1474 2083 942 c 0
 2083 410 1712 -41 1114 -41 c 0
 516 -41 146 410 146 942 c 0
EndSplineSet
EndChar

StartChar: p
Encoding: 112 112 53
GlifName: p
Width: 2482
VWidth: 4730
Flags: HMW
LayerCount: 2
Fore
SplineSet
788 942 m 0
 788 1565 1031 1921 1471 1921 c 0
 1917 1921 2340 1556 2340 942 c 0
 2340 328 1917 -41 1471 -41 c 0
 1032 -41 788 319 788 942 c 0
832 942 m 0
 832 336 1100 55 1358 55 c 0
 1657 55 1798 386 1798 942 c 0
 1798 1498 1659 1825 1360 1825 c 0
 1097 1825 832 1548 832 942 c 0
84 -967 m 1
 1107 -967 l 1
 1107 -1024 l 1
 84 -1024 l 1
 84 -967 l 1
362 1827 m 1
 84 1827 l 1
 84 1884 l 1
 832 1884 l 1
 832 -1024 l 1
 362 -1024 l 1
 362 1827 l 1
EndSplineSet
EndChar

StartChar: q
Encoding: 113 113 54
GlifName: q
Width: 2482
VWidth: 4730
Flags: HMW
LayerCount: 2
Fore
SplineSet
1698 942 m 0
 1698 319 1454 -41 1014 -41 c 0
 568 -41 146 328 146 942 c 0
 146 1556 568 1921 1014 1921 c 0
 1453 1921 1698 1565 1698 942 c 0
1653 942 m 0
 1653 1548 1385 1825 1122 1825 c 0
 829 1825 688 1498 688 942 c 0
 688 386 829 62 1122 62 c 0
 1398 62 1653 336 1653 942 c 0
2401 -967 m 1
 2401 -1024 l 1
 1378 -1024 l 1
 1378 -967 l 1
 2401 -967 l 1
2401 1884 m 1
 2401 1827 l 1
 2124 1827 l 1
 2124 -1024 l 1
 1653 -1024 l 1
 1653 1884 l 1
 2401 1884 l 1
EndSplineSet
EndChar

StartChar: r
Encoding: 114 114 55
GlifName: r
Width: 1812
VWidth: 4730
Flags: HMW
LayerCount: 2
Fore
SplineSet
1595 1744 m 1
 1548 1827 1445 1866 1348 1866 c 0
 929 1866 832 1340 832 913 c 1
 788 913 l 1
 788 1413 878 1925 1354 1925 c 0
 1562 1925 1772 1774 1772 1542 c 0
 1772 1377 1671 1241 1484 1241 c 0
 1318 1241 1191 1340 1191 1518 c 0
 1191 1738 1441 1842 1595 1744 c 1
84 57 m 1
 1107 57 l 1
 1107 0 l 1
 84 0 l 1
 84 57 l 1
362 1827 m 1
 84 1827 l 1
 84 1884 l 1
 832 1884 l 1
 832 0 l 1
 362 0 l 1
 362 1827 l 1
EndSplineSet
EndChar

StartChar: s
Encoding: 115 115 56
GlifName: s
Width: 1785
VWidth: 4730
Flags: HMW
LayerCount: 2
Fore
SplineSet
1445 1522 m 1
 1430 1547 1294 1703 1272 1724 c 1
 1483 1925 l 1
 1524 1925 l 1
 1524 1352 l 1
 1470 1352 l 1
 1464 1383 1459 1494 1445 1522 c 1
1511 1352 m 1
 1470 1352 l 1
 1410 1585 1177 1860 824 1860 c 0
 646 1860 444 1766 444 1568 c 0
 444 1156 1661 1342 1661 592 c 0
 1661 196 1327 -41 940 -41 c 0
 545 -41 241 213 180 563 c 1
 225 563 l 1
 318 256 590 20 910 20 c 0
 1153 20 1384 113 1384 351 c 0
 1384 821 215 570 215 1352 c 0
 215 1645 431 1921 820 1921 c 0
 1221 1921 1470 1622 1511 1352 c 1
212 -41 m 1
 168 -41 l 1
 168 563 l 1
 225 563 l 1
 230 510 240 431 251 399 c 1
 270 367 409 188 424 173 c 1
 212 -41 l 1
EndSplineSet
EndChar

StartChar: t
Encoding: 116 116 57
GlifName: t
Width: 1398
VWidth: 4730
Flags: HMW
LayerCount: 2
Fore
SplineSet
43 1884 m 1
 1251 1884 l 1
 1251 1827 l 1
 43 1827 l 1
 43 1884 l 1
1374 418 m 1
 1276 156 1057 -29 766 -29 c 0
 399 -29 342 209 342 465 c 2
 342 2294 l 1
 496 2294 700 2346 813 2417 c 1
 813 370 l 2
 813 165 858 100 969 100 c 0
 1096 100 1246 246 1325 438 c 1
 1374 418 l 1
EndSplineSet
EndChar

StartChar: u
Encoding: 117 117 58
GlifName: u
Width: 2440
VWidth: 4730
Flags: HMW
LayerCount: 2
Fore
SplineSet
832 1884 m 1
 832 616 l 2
 832 272 896 85 1096 85 c 0
 1462 85 1611 569 1611 971 c 1
 1653 977 l 1
 1653 565 1544 -41 943 -41 c 0
 492 -41 362 222 362 578 c 2
 362 1827 l 1
 84 1827 l 1
 84 1884 l 1
 832 1884 l 1
2082 57 m 1
 2356 57 l 1
 2356 0 l 1
 1611 0 l 1
 1611 1827 l 1
 1334 1827 l 1
 1334 1884 l 1
 2082 1884 l 1
 2082 57 l 1
EndSplineSet
EndChar

StartChar: v
Encoding: 118 118 59
GlifName: v
Width: 2274
VWidth: 4730
Flags: HMW
LayerCount: 2
Fore
SplineSet
2262 1827 m 1
 1488 1827 l 1
 1488 1884 l 1
 2262 1884 l 1
 2262 1827 l 1
1134 1827 m 1
 4 1827 l 1
 4 1884 l 1
 1134 1884 l 1
 1134 1827 l 1
1317 457 m 1
 1890 1884 l 1
 1966 1884 l 1
 1189 -41 l 1
 1052 -41 l 1
 261 1884 l 1
 784 1884 l 1
 1317 457 l 1
EndSplineSet
EndChar

StartChar: w
Encoding: 119 119 60
GlifName: w
Width: 3231
VWidth: 4730
Flags: HMW
LayerCount: 2
Fore
SplineSet
1124 1827 m 1
 4 1827 l 1
 4 1884 l 1
 1124 1884 l 1
 1124 1827 l 1
3218 1827 m 1
 2363 1827 l 1
 2363 1884 l 1
 3218 1884 l 1
 3218 1827 l 1
1171 490 m 1
 1750 1925 l 1
 1940 1925 l 1
 2364 562 l 1
 2801 1884 l 1
 2874 1884 l 1
 2231 -41 l 1
 2090 -41 l 1
 1594 1359 l 1
 1030 -41 l 1
 888 -41 l 1
 261 1884 l 1
 758 1884 l 1
 1171 490 l 1
EndSplineSet
EndChar

StartChar: x
Encoding: 120 120 61
GlifName: x
Width: 2307
VWidth: 4730
Flags: HMW
LayerCount: 2
Fore
SplineSet
1237 57 m 1
 2262 57 l 1
 2262 0 l 1
 1237 0 l 1
 1237 57 l 1
45 57 m 1
 819 57 l 1
 819 0 l 1
 45 0 l 1
 45 57 l 1
1154 1827 m 1
 76 1827 l 1
 76 1884 l 1
 1154 1884 l 1
 1154 1827 l 1
2206 1827 m 1
 1466 1827 l 1
 1466 1884 l 1
 2206 1884 l 1
 2206 1827 l 1
2090 0 m 1
 1526 0 l 1
 292 1884 l 1
 845 1884 l 1
 2090 0 l 1
355 0 m 1
 278 0 l 1
 1857 1884 l 1
 1935 1884 l 1
 355 0 l 1
EndSplineSet
EndChar

StartChar: y
Encoding: 121 121 62
GlifName: y
Width: 2333
VWidth: 4730
Flags: HMW
LayerCount: 2
Fore
SplineSet
1165 1827 m 1
 -6 1827 l 1
 -6 1884 l 1
 1165 1884 l 1
 1165 1827 l 1
2370 1827 m 1
 1636 1827 l 1
 1636 1884 l 1
 2370 1884 l 1
 2370 1827 l 1
1468 461 m 1
 1197 -84 l 1
 226 1884 l 1
 769 1884 l 1
 1468 461 l 1
869 -760 m 1
 2051 1884 l 1
 2129 1884 l 1
 926 -794 l 2
 848 -963 763 -1068 597 -1068 c 0
 464 -1068 320 -981 320 -805 c 0
 320 -649 435 -528 597 -528 c 0
 741 -528 854 -634 869 -760 c 1
EndSplineSet
EndChar

StartChar: z
Encoding: 122 122 63
GlifName: z
Width: 1887
VWidth: 4730
Flags: HMW
LayerCount: 2
Fore
SplineSet
816 1827 m 2
 390 1827 267 1594 236 1180 c 1
 178 1180 l 1
 178 1884 l 1
 1739 1884 l 1
 1739 1827 l 1
 608 57 l 1
 1073 57 l 2
 1593 57 1720 246 1751 754 c 1
 1804 754 l 1
 1804 0 l 1
 64 0 l 1
 64 57 l 1
 1190 1827 l 1
 816 1827 l 2
EndSplineSet
EndChar

StartChar: comma
Encoding: 44 44 65
GlifName: comma
Width: 1003
Flags: HMW
LayerCount: 2
Fore
SplineSet
164 262 m 0
 164 428 313 565 500 565 c 0
 691 565 848 408 848 78 c 0
 848 -270 586 -630 156 -630 c 1
 156 -572 l 1
 514 -572 803 -294 781 172 c 1
 716 35 589 -41 456 -41 c 0
 274 -41 164 96 164 262 c 0
EndSplineSet
EndChar

StartChar: exclam
Encoding: 33 33 67
GlifName: exclam
Width: 1433
Flags: HMW
LayerCount: 2
Fore
SplineSet
1016 2658 m 0
 971 1998 742 1517 742 954 c 1
 684 954 l 1
 684 1517 455 1998 410 2658 c 0
 409 2687 410 2711 410 2736 c 0
 410 2944 488 3105 712 3105 c 0
 936 3105 1020 2944 1020 2736 c 0
 1020 2711 1017 2687 1016 2658 c 0
EndSplineSet
Refer: 1 46 N 1 0 0 1 246 0 2
EndChar

StartChar: quotesingle
Encoding: 39 39 70
GlifName: quotesingle
Width: 941
Flags: HMW
LayerCount: 2
Fore
SplineSet
733 2748 m 24
 688 2441 500 2378 500 1927 c 1
 442 1927 l 1
 442 2378 254 2441 209 2748 c 24
 205 2777 205 2797 205 2822 c 0
 205 3002 321 3113 471 3113 c 0
 621 3113 737 3002 737 2822 c 0
 737 2797 737 2777 733 2748 c 24
EndSplineSet
EndChar

StartChar: question
Encoding: 63 63 75
GlifName: question
Width: 2323
Flags: HMW
LayerCount: 2
Fore
SplineSet
993 1449 m 1
 1400 1564 1583 1913 1583 2294 c 0
 1583 2679 1505 3044 1059 3044 c 0
 691 3044 396 2756 355 2567 c 1
 372 2594 433 2642 527 2642 c 0
 677 2642 815 2545 815 2376 c 0
 815 2186 673 2095 530 2095 c 0
 366 2095 246 2206 246 2400 c 0
 246 2746 631 3113 1131 3113 c 0
 1729 3113 2120 2786 2120 2294 c 0
 2120 1823 1679 1449 1050 1412 c 1
 1050 928 l 1
 993 928 l 1
 993 1449 l 1
EndSplineSet
Refer: 1 46 N 1 0 0 1 590 0 2
EndChar

StartChar: parenleft
Encoding: 40 40 76
GlifName: parenleft
Width: 1502
Flags: HMW
LayerCount: 2
Fore
SplineSet
1450 -648 m 1
 1426 -696 l 1
 758 -409 266 377 266 1331 c 0
 266 2285 758 2990 1426 3277 c 1
 1450 3229 l 1
 993 2932 778 2117 778 1331 c 0
 778 545 993 -351 1450 -648 c 1
EndSplineSet
EndChar

StartChar: at
Encoding: 64 64 79
GlifName: at
Width: 4136
VWidth: 4730
Flags: HMW
LayerCount: 2
Fore
SplineSet
2481 1451 m 0
 2481 809 2142 287 1702 287 c 0
 1362 287 1081 516 1081 942 c 0
 1081 1556 1542 2167 2048 2167 c 0
 2394 2167 2481 1787 2481 1451 c 0
2435 1417 m 0
 2435 1589 2405 2041 2158 2041 c 0
 1897 2041 1618 1469 1618 961 c 0
 1618 687 1680 414 1879 414 c 0
 2129 414 2435 887 2435 1417 c 0
2345 860 m 2
 2640 2130 l 1
 3131 2130 l 1
 2835 855 l 2
 2815 765 2664 366 2942 366 c 0
 3443 366 3854 993 3854 1642 c 0
 3854 2371 3404 3178 2392 3178 c 0
 1233 3178 283 2117 283 864 c 0
 283 -377 995 -819 1716 -819 c 0
 2384 -819 2814 -622 3174 -221 c 1
 3215 -262 l 1
 2871 -663 2384 -877 1716 -877 c 0
 966 -877 225 -422 225 864 c 0
 225 2146 1196 3236 2396 3236 c 0
 3432 3236 3912 2392 3912 1642 c 0
 3912 977 3530 279 2799 279 c 0
 2373 279 2288 606 2345 860 c 2
EndSplineSet
EndChar

StartChar: dollar
Encoding: 36 36 80
GlifName: dollar
Width: 2354
Flags: HMW
LayerCount: 2
Fore
SplineSet
1279 3400 m 1
 1345 3400 l 1
 1345 -328 l 1
 1279 -328 l 1
 1279 3400 l 1
932 3400 m 1
 1001 3400 l 1
 1001 -328 l 1
 932 -328 l 1
 932 3400 l 1
1970 2614 m 1
 1914 2833 1619 3046 1234 3046 c 0
 841 3046 594 2831 594 2523 c 0
 594 1789 2191 2017 2191 880 c 0
 2191 307 1794 -61 1186 -61 c 0
 463 -61 118 328 118 614 c 0
 118 822 240 981 440 981 c 0
 584 981 734 869 734 669 c 0
 734 485 569 383 420 383 c 0
 328 383 257 425 225 467 c 1
 323 281 565 1 1157 1 c 0
 1591 1 1833 252 1833 631 c 0
 1833 1447 236 1168 236 2294 c 0
 236 2796 712 3113 1208 3113 c 0
 1673 3113 2089 2830 2089 2478 c 0
 2089 2270 1972 2122 1772 2122 c 0
 1628 2122 1479 2220 1479 2418 c 0
 1479 2599 1627 2710 1776 2710 c 0
 1854 2710 1934 2665 1970 2614 c 1
EndSplineSet
EndChar

StartChar: numbersign
Encoding: 35 35 81
GlifName: numbersign
Width: 2580
Flags: HMW
LayerCount: 2
Fore
SplineSet
123 1065 m 1
 2335 1065 l 1
 2335 1008 l 1
 123 1008 l 1
 123 1065 l 1
246 2126 m 1
 2458 2126 l 1
 2458 2068 l 1
 246 2068 l 1
 246 2126 l 1
1847 3088 m 1
 1905 3092 l 1
 1495 -20 l 1
 1438 -25 l 1
 1847 3088 l 1
1044 3092 m 1
 1102 3092 l 1
 692 -20 l 1
 635 -20 l 1
 1044 3092 l 1
EndSplineSet
EndChar

StartChar: slash
Encoding: 47 47 82
GlifName: slash
Width: 2129
Flags: HMW
LayerCount: 2
Fore
SplineSet
1909 3195 m 1
 1966 3195 l 1
 221 -614 l 1
 164 -614 l 1
 1909 3195 l 1
EndSplineSet
EndChar

StartChar: percent
Encoding: 37 37 83
GlifName: percent
Width: 4136
Flags: HMW
LayerCount: 2
Fore
SplineSet
2816 860 m 0
 2816 384 2881 16 3133 16 c 0
 3385 16 3451 384 3451 860 c 0
 3451 1336 3385 1704 3133 1704 c 0
 2881 1704 2816 1336 2816 860 c 0
2273 860 m 0
 2273 1446 2670 1761 3133 1761 c 0
 3596 1761 3994 1446 3994 860 c 0
 3994 274 3514 -41 3133 -41 c 0
 2670 -41 2273 274 2273 860 c 0
3084 3072 m 1
 3154 3072 l 1
 1052 0 l 1
 983 0 l 1
 3084 3072 l 1
686 2212 m 0
 686 1736 752 1368 1004 1368 c 0
 1256 1368 1321 1736 1321 2212 c 0
 1321 2688 1256 3056 1004 3056 c 0
 752 3056 686 2688 686 2212 c 0
143 2212 m 0
 143 2798 541 3113 1004 3113 c 0
 1467 3113 1864 2798 1864 2212 c 0
 1864 1626 1385 1311 1004 1311 c 0
 541 1311 143 1626 143 2212 c 0
EndSplineSet
EndChar

StartChar: hyphen
Encoding: 45 45 85
GlifName: hyphen
Width: 1474
Flags: HMW
LayerCount: 2
Fore
SplineSet
246 1155 m 1
 1229 1155 l 1
 1229 1098 l 1
 246 1098 l 1
 246 1155 l 1
EndSplineSet
EndChar

StartChar: plus
Encoding: 43 43 87
GlifName: plus
Width: 2170
Flags: HMW
LayerCount: 2
Fore
SplineSet
1057 451 m 1
 1057 2130 l 1
 1114 2130 l 1
 1114 451 l 1
 1057 451 l 1
246 1323 m 1
 1925 1323 l 1
 1925 1266 l 1
 246 1266 l 1
 246 1323 l 1
EndSplineSet
EndChar

StartChar: less
Encoding: 60 60 89
GlifName: less
Width: 2293
Flags: HMW
LayerCount: 2
Fore
SplineSet
246 1565 m 1
 246 1622 l 1
 2048 2458 l 1
 2048 2400 l 1
 246 1565 l 1
246 1552 m 1
 246 1610 l 1
 2048 774 l 1
 2048 717 l 1
 246 1552 l 1
EndSplineSet
EndChar

StartChar: backslash
Encoding: 92 92 91
GlifName: backslash
Width: 2129
Flags: HMW
LayerCount: 2
Fore
SplineSet
233 3195 m 1
 1966 -614 l 1
 1896 -614 l 1
 164 3195 l 1
 233 3195 l 1
EndSplineSet
EndChar

StartChar: bracketleft
Encoding: 91 91 92
GlifName: bracketleft
Width: 1392
Flags: HMW
LayerCount: 2
Fore
SplineSet
1270 -614 m 1
 225 -614 l 1
 225 -557 l 1
 1270 -557 l 1
 1270 -614 l 1
1270 3138 m 1
 225 3138 l 1
 225 3195 l 1
 1270 3195 l 1
 1270 3138 l 1
717 3195 m 1
 717 -614 l 1
 225 -614 l 1
 225 3195 l 1
 717 3195 l 1
EndSplineSet
EndChar

StartChar: braceleft
Encoding: 123 123 93
GlifName: braceleft
Width: 1236
VWidth: 4730
Flags: HMW
LayerCount: 2
Fore
SplineSet
1114 3195 m 1
 1114 3138 l 1
 860 3138 729 2908 729 2650 c 0
 729 2360 868 2186 868 1796 c 0
 868 1456 651 1360 225 1278 c 1
 225 1319 l 1
 348 1360 471 1454 471 1622 c 0
 471 1880 225 2066 225 2606 c 0
 225 2991 428 3195 1114 3195 c 1
1114 -614 m 1
 428 -614 225 -405 225 -20 c 0
 225 520 471 705 471 963 c 0
 471 1131 348 1221 225 1262 c 1
 225 1307 l 1
 651 1225 868 1128 868 788 c 0
 868 398 729 224 729 -66 c 0
 729 -324 860 -557 1114 -557 c 1
 1114 -614 l 1
EndSplineSet
EndChar

StartChar: bar
Encoding: 124 124 96
GlifName: bar
Width: 942
VWidth: 4730
Flags: HMW
LayerCount: 2
Fore
SplineSet
442 3195 m 1
 500 3195 l 1
 500 -1024 l 1
 442 -1024 l 1
 442 3195 l 1
EndSplineSet
EndChar

StartChar: cent
Encoding: 162 162 98
GlifName: cent
Width: 2060
VWidth: 4730
Flags: HMW
LayerCount: 2
Fore
SplineSet
1166 2273 m 1
 1166 -348 l 1
 1110 -348 l 1
 1110 2273 l 1
 1166 2273 l 1
EndSplineSet
Refer: 40 99 N 1 0 0 1 0 0 2
EndChar

StartChar: sterling
Encoding: 163 163 99
GlifName: sterling
Width: 2623
VWidth: 4730
Flags: HMW
LayerCount: 2
Fore
SplineSet
2528 766 m 1
 2528 70 2216 -123 1800 -123 c 0
 1239 -123 1024 123 766 123 c 0
 598 123 393 41 352 -82 c 1
 319 -82 l 1
 391 221 641 520 1012 520 c 0
 1402 520 1570 381 1860 381 c 0
 2125 381 2470 430 2470 766 c 1
 2528 766 l 1
1905 1656 m 1
 1905 1599 l 1
 61 1599 l 1
 61 1656 l 1
 1905 1656 l 1
442 2253 m 0
 442 2826 883 3113 1573 3113 c 0
 2237 3113 2548 2752 2548 2416 c 0
 2548 2217 2413 2095 2254 2095 c 0
 2111 2095 1950 2191 1950 2386 c 0
 1950 2560 2094 2673 2244 2673 c 0
 2338 2673 2399 2617 2422 2594 c 1
 2390 2768 2142 3046 1654 3046 c 0
 1156 3046 1020 2669 1020 2345 c 0
 1020 1939 1249 1710 1249 1382 c 0
 1249 635 299 625 352 -82 c 1
 295 -82 l 1
 217 487 774 807 774 1069 c 0
 774 1536 442 1782 442 2253 c 0
EndSplineSet
EndChar

StartChar: section
Encoding: 167 167 101
GlifName: section
Width: 1890
VWidth: 4730
Flags: HMW
LayerCount: 2
Fore
SplineSet
492 2653 m 0
 492 2188 1750 2209 1750 1582 c 0
 1750 1308 1527 1188 1316 1051 c 1
 1256 1070 l 1
 1342 1152 1433 1224 1433 1355 c 0
 1433 1851 264 1725 264 2470 c 0
 264 2896 628 3113 976 3113 c 0
 1326 3113 1709 2958 1709 2524 c 0
 1709 2346 1597 2209 1433 2209 c 0
 1289 2209 1181 2312 1181 2469 c 0
 1181 2610 1305 2722 1445 2722 c 0
 1505 2722 1566 2691 1586 2680 c 1
 1524 2889 1288 3036 976 3036 c 0
 729 3036 492 2878 492 2653 c 0
1732 664 m 0
 1732 238 1400 -41 908 -41 c 0
 548 -41 123 104 123 558 c 0
 123 736 236 872 400 872 c 0
 544 872 652 769 652 612 c 0
 652 471 529 364 389 364 c 0
 325 364 264 397 247 408 c 1
 319 160 612 36 908 36 c 0
 1310 36 1458 249 1458 434 c 0
 1458 899 176 848 176 1444 c 0
 176 1749 419 1932 568 2038 c 1
 639 2038 l 1
 616 1989 526 1880 526 1722 c 0
 526 1226 1732 1409 1732 664 c 0
EndSplineSet
EndChar

StartChar: asciitilde
Encoding: 126 126 104
GlifName: asciitilde
Width: 2818
VWidth: 4730
Flags: HMW
LayerCount: 2
Fore
SplineSet
858 1759 m 0
 641 1759 467 1669 467 1405 c 1
 410 1405 l 1
 410 1876 676 2120 1020 2120 c 0
 1471 2120 1522 1735 1919 1735 c 0
 2177 1735 2351 1825 2351 2089 c 1
 2408 2089 l 1
 2408 1618 2142 1374 1798 1374 c 0
 1278 1374 1284 1759 858 1759 c 0
EndSplineSet
EndChar

StartChar: copyright
Encoding: 169 169 105
GlifName: copyright
Width: 3563
Flags: HMW
LayerCount: 2
Fore
SplineSet
205 1536 m 0
 205 2408 910 3113 1782 3113 c 0
 2654 3113 3359 2408 3359 1536 c 0
 3359 664 2654 -41 1782 -41 c 0
 910 -41 205 664 205 1536 c 0
262 1536 m 0
 262 696 942 16 1782 16 c 0
 2622 16 3301 696 3301 1536 c 0
 3301 2376 2622 3056 1782 3056 c 0
 942 3056 262 2376 262 1536 c 0
EndSplineSet
Refer: 14 67 N 0.6 0 0 0.6 848 614 2
EndChar

StartChar: registered
Encoding: 174 174 106
GlifName: registered
Width: 3563
Flags: HMW
LayerCount: 2
Fore
SplineSet
205 1536 m 0
 205 2408 910 3113 1782 3113 c 0
 2654 3113 3359 2408 3359 1536 c 0
 3359 664 2654 -41 1782 -41 c 0
 910 -41 205 664 205 1536 c 0
262 1536 m 0
 262 696 942 16 1782 16 c 0
 2622 16 3301 696 3301 1536 c 0
 3301 2376 2622 3056 1782 3056 c 0
 942 3056 262 2376 262 1536 c 0
EndSplineSet
Refer: 29 82 N 0.6 0 0 0.6 945 606 2
EndChar

StartChar: logicalnot
Encoding: 172 172 107
GlifName: logicalnot
Width: 1990
Flags: HMW
LayerCount: 2
Fore
SplineSet
1688 2462 m 1
 246 2462 l 1
 246 2519 l 1
 1745 2519 l 1
 1745 1692 l 1
 1688 1692 l 1
 1688 2462 l 1
EndSplineSet
EndChar

StartChar: guillemotleft
Encoding: 171 171 108
GlifName: guillemotleft
Width: 2907
Flags: HMW
LayerCount: 2
Fore
SplineSet
1888 1589 m 1
 2691 623 l 1
 2662 594 l 1
 1249 1540 l 1
 1249 1634 l 1
 2662 2580 l 1
 2691 2552 l 1
 1888 1589 l 1
720 1589 m 1
 1544 623 l 1
 1516 594 l 1
 102 1540 l 1
 102 1634 l 1
 1516 2580 l 1
 1544 2552 l 1
 720 1589 l 1
EndSplineSet
EndChar

StartChar: mu
Encoding: 181 181 111
GlifName: mu
Width: 2414
VWidth: 4730
Flags: HMW
LayerCount: 2
Fore
SplineSet
1071 -504 m 0
 1206 -504 1313 -622 1313 -778 c 0
 1313 -938 1227 -1065 928 -1065 c 0
 641 -1065 396 -865 396 -496 c 2
 396 1315 l 1
 452 1315 l 1
 452 -496 l 2
 452 -840 665 -1016 968 -1016 c 1
 968 -1016 l 1
 862 -942 828 -839 828 -737 c 0
 828 -602 936 -504 1071 -504 c 0
EndSplineSet
Refer: 58 117 N 1 0 0 1 0 0 2
EndChar

StartChar: asciicircum
Encoding: 94 94 113
GlifName: asciicircum
Width: 2232
Flags: HMW
LayerCount: 2
Fore
SplineSet
1114 2961 m 1
 438 2552 l 1
 410 2580 l 1
 983 3154 l 1
 1249 3154 l 1
 1823 2580 l 1
 1794 2552 l 1
 1114 2961 l 1
EndSplineSet
EndChar

StartChar: degree
Encoding: 176 176 115
GlifName: degree
Width: 1310
Flags: HMW
LayerCount: 2
Fore
SplineSet
164 2785 m 0
 164 3055 385 3277 655 3277 c 0
 925 3277 1147 3055 1147 2785 c 0
 1147 2515 925 2294 655 2294 c 0
 385 2294 164 2515 164 2785 c 0
340 2785 m 0
 340 2605 475 2470 655 2470 c 0
 835 2470 971 2605 971 2785 c 0
 971 2965 835 3101 655 3101 c 0
 475 3101 340 2965 340 2785 c 0
EndSplineSet
EndChar

StartChar: onequarter
Encoding: 188 188 119
GlifName: onequarter
Width: 2686
Flags: HMW
LayerCount: 2
Fore
SplineSet
2097 2662 m 1
 2154 2662 l 1
 221 -410 l 1
 164 -410 l 1
 2097 2662 l 1
EndSplineSet
Refer: 6 52 N 0.6 0 0 0.6 1106 -422 2
Refer: 3 49 N 0.6 0 0 0.6 -33 1459 2
EndChar

StartChar: onehalf
Encoding: 189 189 120
GlifName: onehalf
Width: 2805
Flags: HMW
LayerCount: 2
Fore
SplineSet
2097 2662 m 1
 2154 2662 l 1
 221 -410 l 1
 164 -410 l 1
 2097 2662 l 1
EndSplineSet
Refer: 4 50 N 0.6 0 0 0.6 1398 -414 2
Refer: 3 49 N 0.6 0 0 0.6 -33 1459 2
EndChar

StartChar: threequarters
Encoding: 190 190 121
GlifName: threequarters
Width: 2932
Flags: HMW
LayerCount: 2
Fore
SplineSet
2343 2662 m 1
 2400 2662 l 1
 467 -410 l 1
 410 -410 l 1
 2343 2662 l 1
EndSplineSet
Refer: 5 51 N 0.6 0 0 0.6 20 1451 2
Refer: 6 52 N 0.6 0 0 0.6 1352 -422 2
EndChar

StartChar: grave
Encoding: 96 96 123
GlifName: grave
Width: 1647
Flags: HMW
LayerCount: 2
Fore
SplineSet
430 2908 m 2
 321 2901 225 2983 225 3092 c 0
 225 3201 333 3313 471 3269 c 2
 1418 2988 l 1
 1403 2930 l 1
 430 2908 l 2
EndSplineSet
EndChar

StartChar: acute
Encoding: 180 180 124
GlifName: acute
Width: 1647
Flags: HMW
LayerCount: 2
Fore
SplineSet
1218 2908 m 2
 246 2930 l 1
 230 2988 l 1
 1177 3269 l 2
 1315 3313 1424 3201 1424 3092 c 0
 1424 2983 1327 2901 1218 2908 c 2
EndSplineSet
EndChar

StartChar: cedilla
Encoding: 184 184 128
GlifName: cedilla
Width: 2252
Flags: HMW
LayerCount: 2
Fore
SplineSet
1307 -573 m 0
 1307 -356 1124 -324 889 -324 c 1
 1257 168 l 1
 1335 168 l 1
 1090 -160 l 1
 1423 -172 1679 -263 1679 -492 c 0
 1679 -697 1483 -883 926 -883 c 1
 926 -825 l 1
 1168 -825 1307 -716 1307 -573 c 0
EndSplineSet
EndChar

StartChar: divide
Encoding: 247 247 131
GlifName: divide
Width: 2395
Flags: HMW
LayerCount: 2
Fore
SplineSet
195 1647 m 1
 2202 1647 l 1
 2202 1590 l 1
 195 1590 l 1
 195 1647 l 1
891 830 m 0
 891 999 1029 1137 1198 1137 c 0
 1367 1137 1505 999 1505 830 c 0
 1505 661 1367 522 1198 522 c 0
 1029 522 891 661 891 830 c 0
891 2345 m 0
 891 2514 1029 2652 1198 2652 c 0
 1367 2652 1505 2514 1505 2345 c 0
 1505 2176 1367 2038 1198 2038 c 0
 1029 2038 891 2176 891 2345 c 0
EndSplineSet
EndChar

StartChar: ring
Encoding: 730 730 271
GlifName: ring
Width: 1310
VWidth: 0
Flags: HMW
LayerCount: 2
Fore
SplineSet
266 2785 m 0
 266 2994 425 3154 655 3154 c 0
 885 3154 1044 2994 1044 2785 c 0
 1044 2576 885 2417 655 2417 c 0
 425 2417 266 2576 266 2785 c 0
461 2785 m 0
 461 2599 511 2474 655 2474 c 0
 799 2474 850 2599 850 2785 c 0
 850 2971 799 3097 655 3097 c 0
 511 3097 461 2971 461 2785 c 0
EndSplineSet
EndChar

StartChar: tilde
Encoding: 732 732 272
GlifName: tilde
Width: 1835
VWidth: 0
Flags: HMW
LayerCount: 2
Fore
SplineSet
512 2709 m 0
 380 2709 262 2630 262 2448 c 1
 205 2448 l 1
 205 2796 378 3009 610 3009 c 0
 918 3009 1091 2685 1323 2685 c 0
 1468 2685 1573 2765 1573 2947 c 1
 1630 2947 l 1
 1630 2558 1539 2386 1266 2386 c 0
 972 2386 772 2709 512 2709 c 0
EndSplineSet
EndChar

StartChar: AE
Encoding: 198 198 274
GlifName: A_E_
Width: 4188
Flags: HMW
LayerCount: 2
Fore
SplineSet
2150 3072 m 1
 2216 3072 l 1
 461 0 l 1
 383 0 l 1
 2150 3072 l 1
61 57 m 1
 963 57 l 1
 963 0 l 1
 61 0 l 1
 61 57 l 1
1007 1032 m 1
 2191 1032 l 1
 2191 975 l 1
 1007 975 l 1
 1007 1032 l 1
2150 3072 m 1
 2663 3072 l 1
 2663 0 l 1
 2150 0 l 1
 2150 3072 l 1
2150 3072 m 1
 4024 3072 l 1
 4024 2232 l 1
 3967 2232 l 1
 3936 2670 3725 3015 3256 3015 c 2
 2150 3015 l 1
 2150 3072 l 1
4065 0 m 1
 1782 0 l 1
 1782 57 l 1
 3216 57 l 2
 3767 57 3977 402 4008 922 c 1
 4065 922 l 1
 4065 0 l 1
3301 1108 m 1
 3270 1382 3090 1561 2857 1561 c 2
 2612 1561 l 1
 2612 1618 l 1
 2857 1618 l 2
 3090 1618 3270 1776 3301 2050 c 1
 3359 2050 l 1
 3359 1108 l 1
 3301 1108 l 1
EndSplineSet
EndChar

StartChar: ae
Encoding: 230 230 277
GlifName: ae
Width: 3268
VWidth: 4730
Flags: HMW
LayerCount: 2
Fore
SplineSet
287 1489 m 0
 287 1748 642 1917 1036 1917 c 0
 1568 1917 1694 1601 1694 1249 c 1
 1653 741 l 1
 1653 233 1325 -41 860 -41 c 0
 475 -41 143 99 143 463 c 0
 143 807 458 1060 1040 1060 c 2
 1528 1060 l 1
 1528 1002 l 1
 1112 1002 l 2
 832 1002 664 783 664 509 c 0
 664 235 766 20 960 20 c 0
 1162 20 1314 296 1314 690 c 2
 1314 1249 l 2
 1314 1523 1269 1846 941 1846 c 0
 753 1846 606 1785 533 1718 c 1
 689 1752 844 1659 844 1497 c 0
 844 1323 684 1233 551 1233 c 0
 397 1233 287 1332 287 1489 c 0
2641 1087 m 1
 2637 1411 2603 1868 2289 1868 c 0
 1945 1868 1854 1429 1854 962 c 0
 1854 495 1956 25 2378 25 c 0
 2748 25 3007 270 3109 586 c 1
 3166 586 l 1
 3060 230 2777 -41 2301 -41 c 0
 1774 -41 1424 318 1424 942 c 0
 1424 1566 1762 1925 2289 1925 c 0
 2899 1925 3162 1477 3162 1031 c 1
 1654 1031 l 1
 1654 1087 l 1
 2641 1087 l 1
EndSplineSet
EndChar

StartChar: perthousand
Encoding: 8240 8240 285
GlifName: perthousand
Width: 6102
Flags: HMW
LayerCount: 2
Fore
SplineSet
4782 860 m 0
 4782 384 4848 16 5100 16 c 0
 5352 16 5417 384 5417 860 c 0
 5417 1336 5352 1704 5100 1704 c 0
 4848 1704 4782 1336 4782 860 c 0
4239 860 m 0
 4239 1446 4637 1761 5100 1761 c 0
 5563 1761 5960 1446 5960 860 c 0
 5960 274 5481 -41 5100 -41 c 0
 4637 -41 4239 274 4239 860 c 0
2816 860 m 0
 2816 384 2881 16 3133 16 c 0
 3385 16 3451 384 3451 860 c 0
 3451 1336 3385 1704 3133 1704 c 0
 2881 1704 2816 1336 2816 860 c 0
2273 860 m 0
 2273 1446 2670 1761 3133 1761 c 0
 3596 1761 3994 1446 3994 860 c 0
 3994 274 3514 -41 3133 -41 c 0
 2670 -41 2273 274 2273 860 c 0
3084 3072 m 1
 3154 3072 l 1
 1052 0 l 1
 983 0 l 1
 3084 3072 l 1
686 2212 m 0
 686 1736 752 1368 1004 1368 c 0
 1256 1368 1321 1736 1321 2212 c 0
 1321 2688 1256 3056 1004 3056 c 0
 752 3056 686 2688 686 2212 c 0
143 2212 m 0
 143 2798 541 3113 1004 3113 c 0
 1467 3113 1864 2798 1864 2212 c 0
 1864 1626 1385 1311 1004 1311 c 0
 541 1311 143 1626 143 2212 c 0
EndSplineSet
EndChar

StartChar: uni2031
Encoding: 8241 8241 286
GlifName: uni2031
Width: 8099
Flags: HMW
LayerCount: 2
Fore
SplineSet
6779 860 m 0
 6779 384 6844 16 7096 16 c 0
 7348 16 7414 384 7414 860 c 0
 7414 1336 7348 1704 7096 1704 c 0
 6844 1704 6779 1336 6779 860 c 0
6236 860 m 0
 6236 1446 6633 1761 7096 1761 c 0
 7559 1761 7956 1446 7956 860 c 0
 7956 274 7477 -41 7096 -41 c 0
 6633 -41 6236 274 6236 860 c 0
4782 860 m 0
 4782 384 4848 16 5100 16 c 0
 5352 16 5417 384 5417 860 c 0
 5417 1336 5352 1704 5100 1704 c 0
 4848 1704 4782 1336 4782 860 c 0
4239 860 m 0
 4239 1446 4637 1761 5100 1761 c 0
 5563 1761 5960 1446 5960 860 c 0
 5960 274 5481 -41 5100 -41 c 0
 4637 -41 4239 274 4239 860 c 0
2816 860 m 0
 2816 384 2881 16 3133 16 c 0
 3385 16 3451 384 3451 860 c 0
 3451 1336 3385 1704 3133 1704 c 0
 2881 1704 2816 1336 2816 860 c 0
2273 860 m 0
 2273 1446 2670 1761 3133 1761 c 0
 3596 1761 3994 1446 3994 860 c 0
 3994 274 3514 -41 3133 -41 c 0
 2670 -41 2273 274 2273 860 c 0
3084 3072 m 1
 3154 3072 l 1
 1052 0 l 1
 983 0 l 1
 3084 3072 l 1
686 2212 m 0
 686 1736 752 1368 1004 1368 c 0
 1256 1368 1321 1736 1321 2212 c 0
 1321 2688 1256 3056 1004 3056 c 0
 752 3056 686 2688 686 2212 c 0
143 2212 m 0
 143 2798 541 3113 1004 3113 c 0
 1467 3113 1864 2798 1864 2212 c 0
 1864 1626 1385 1311 1004 1311 c 0
 541 1311 143 1626 143 2212 c 0
EndSplineSet
EndChar

StartChar: uniFB00
Encoding: 64256 64256 290
GlifName: uniF_B_00
Width: 2723
VWidth: 4730
Flags: HMW
LayerCount: 2
Fore
SplineSet
56 57 m 1
 2594 57 l 1
 2594 0 l 1
 56 0 l 1
 56 57 l 1
56 1884 m 1
 2676 1884 l 1
 2676 1827 l 1
 56 1827 l 1
 56 1884 l 1
1835 2609 m 1
 1819 2704 1642 2849 1406 2849 c 0
 1097 2849 886 2527 886 2007 c 2
 886 0 l 1
 425 0 l 1
 425 1892 l 2
 425 2449 823 2908 1396 2908 c 0
 1738 2908 1972 2673 1972 2442 c 0
 1972 2254 1850 2146 1696 2146 c 0
 1563 2146 1416 2230 1416 2412 c 0
 1416 2594 1543 2682 1699 2682 c 0
 1765 2682 1823 2640 1835 2609 c 1
2954 2844 m 1
 2917 2937 2800 3055 2558 3055 c 0
 2230 3055 2110 2732 2110 2212 c 2
 2110 0 l 1
 1648 0 l 1
 1648 2097 l 2
 1648 2654 1985 3113 2548 3113 c 0
 2890 3113 3082 2889 3082 2676 c 0
 3082 2488 2962 2382 2808 2382 c 0
 2675 2382 2527 2465 2527 2647 c 0
 2527 2829 2657 2917 2813 2917 c 0
 2875 2917 2938 2886 2954 2844 c 1
EndSplineSet
Ligature2: "'liga' Standard Ligatures lookup 0-1" f f
LCarets2: 1 0
EndChar

StartChar: uniFB01
Encoding: 64257 64257 291
GlifName: uniF_B_01
Width: 2421
VWidth: 4730
Flags: HMW
LayerCount: 2
Fore
SplineSet
425 2097 m 2
 425 2665 792 3113 1457 3113 c 0
 1881 3113 2084 2889 2084 2646 c 0
 2084 2458 1963 2352 1809 2352 c 0
 1673 2352 1529 2436 1529 2614 c 0
 1529 2796 1659 2884 1815 2884 c 0
 1887 2884 1936 2847 1948 2809 c 1
 1928 2919 1779 3056 1457 3056 c 0
 1025 3056 886 2732 886 2212 c 2
 886 0 l 1
 425 0 l 1
 425 2097 l 2
56 57 m 1
 2355 57 l 1
 2355 0 l 1
 56 0 l 1
 56 57 l 1
1597 1827 m 1
 56 1827 l 1
 56 1884 l 1
 2068 1884 l 1
 2068 0 l 1
 1597 0 l 1
 1597 1827 l 1
EndSplineSet
Ligature2: "'liga' Standard Ligatures lookup 0-1" f i
LCarets2: 1 0
EndChar

StartChar: uniFB02
Encoding: 64258 64258 292
GlifName: uniF_B_02
Width: 2534
VWidth: 4730
Flags: HMW
LayerCount: 2
Fore
SplineSet
56 57 m 1
 2504 57 l 1
 2504 0 l 1
 56 0 l 1
 56 57 l 1
56 1884 m 1
 1444 1884 l 1
 1444 1827 l 1
 56 1827 l 1
 56 1884 l 1
1725 2990 m 1
 2196 3154 l 1
 2196 0 l 1
 1725 0 l 1
 1725 2990 l 1
1763 2810 m 1
 1747 2910 1608 3056 1365 3056 c 0
 1016 3056 886 2732 886 2212 c 2
 886 0 l 1
 425 0 l 1
 425 2097 l 2
 425 2654 792 3113 1355 3113 c 0
 1697 3113 1890 2889 1890 2646 c 0
 1890 2458 1769 2352 1615 2352 c 0
 1482 2352 1334 2430 1334 2614 c 0
 1334 2798 1463 2886 1623 2886 c 0
 1709 2886 1757 2810 1763 2810 c 1
EndSplineSet
Ligature2: "'liga' Standard Ligatures lookup 0-1" f l
LCarets2: 1 0
EndChar

StartChar: uniFB03
Encoding: 64259 64259 293
GlifName: uniF_B_03
Width: 3624
VWidth: 4730
Flags: HMW
LayerCount: 2
Fore
SplineSet
1628 2097 m 2
 1628 2665 1995 3113 2660 3113 c 0
 3084 3113 3287 2889 3287 2646 c 0
 3287 2458 3166 2352 3012 2352 c 0
 2876 2352 2732 2436 2732 2614 c 0
 2732 2796 2861 2884 3017 2884 c 0
 3093 2884 3141 2845 3151 2809 c 1
 3131 2919 2982 3055 2660 3055 c 0
 2228 3055 2089 2732 2089 2212 c 2
 2089 0 l 1
 1628 0 l 1
 1628 2097 l 2
56 57 m 1
 3558 57 l 1
 3558 0 l 1
 56 0 l 1
 56 57 l 1
425 1892 m 2
 425 2448 823 2908 1396 2908 c 0
 1738 2908 1972 2673 1972 2442 c 0
 1972 2254 1850 2146 1696 2146 c 0
 1563 2146 1416 2230 1416 2412 c 0
 1416 2594 1543 2682 1699 2682 c 0
 1765 2682 1819 2647 1831 2616 c 1
 1811 2708 1642 2849 1406 2849 c 0
 1097 2849 886 2527 886 2007 c 2
 886 0 l 1
 425 0 l 1
 425 1892 l 2
2801 1827 m 1
 56 1827 l 1
 56 1884 l 1
 3271 1884 l 1
 3271 0 l 1
 2801 0 l 1
 2801 1827 l 1
EndSplineSet
Ligature2: "'liga' Standard Ligatures lookup 0-1" f f i
LCarets2: 2 0 0
EndChar

StartChar: uniFB04
Encoding: 64260 64260 294
GlifName: uniF_B_04
Width: 3788
VWidth: 4730
Flags: HMW
LayerCount: 2
Fore
SplineSet
56 57 m 1
 3727 57 l 1
 3727 0 l 1
 56 0 l 1
 56 57 l 1
56 1884 m 1
 2668 1884 l 1
 2668 1827 l 1
 56 1827 l 1
 56 1884 l 1
2949 2990 m 1
 3420 3154 l 1
 3420 0 l 1
 2949 0 l 1
 2949 2990 l 1
1832 2616 m 1
 1812 2708 1642 2849 1406 2849 c 0
 1097 2849 886 2527 886 2007 c 2
 886 0 l 1
 425 0 l 1
 425 1892 l 2
 425 2448 823 2908 1396 2908 c 0
 1738 2908 1972 2673 1972 2442 c 0
 1972 2254 1850 2146 1696 2146 c 0
 1563 2146 1416 2230 1416 2412 c 0
 1416 2594 1543 2682 1699 2682 c 0
 1761 2682 1820 2647 1832 2616 c 1
2986 2813 m 1
 2968 2918 2822 3056 2588 3056 c 0
 2239 3056 2110 2732 2110 2212 c 2
 2110 0 l 1
 1648 0 l 1
 1648 2097 l 2
 1648 2654 2015 3113 2578 3113 c 0
 2920 3113 3113 2889 3113 2646 c 0
 3113 2458 2993 2352 2839 2352 c 0
 2706 2352 2558 2430 2558 2614 c 0
 2558 2798 2686 2886 2846 2886 c 0
 2932 2886 2980 2813 2986 2813 c 1
EndSplineSet
Ligature2: "'liga' Standard Ligatures lookup 0-1" f f l
LCarets2: 2 0 0
EndChar

StartChar: ogonek
Encoding: 731 731 295
GlifName: ogonek
Width: 2252
Flags: HMW
LayerCount: 2
Fore
SplineSet
1615 -484 m 1
 1554 -599 1445 -782 1123 -782 c 0
 883 -782 650 -676 650 -430 c 0
 650 -102 1010 89 1291 176 c 1
 1303 143 l 1
 1197 83 1113 -102 1113 -324 c 0
 1113 -518 1184 -665 1313 -665 c 0
 1445 -665 1515 -563 1570 -462 c 1
 1615 -484 l 1
EndSplineSet
EndChar

StartChar: dotlessi
Encoding: 305 305 296
GlifName: dotlessi
Width: 1207
VWidth: 4730
Flags: HMW
LayerCount: 2
Fore
SplineSet
82 57 m 1
 1126 57 l 1
 1126 0 l 1
 82 0 l 1
 82 57 l 1
369 1827 m 1
 82 1827 l 1
 82 1884 l 1
 840 1884 l 1
 840 0 l 1
 369 0 l 1
 369 1827 l 1
EndSplineSet
EndChar

StartChar: uni0237
Encoding: 567 567 297
GlifName: uni0237
Width: 1217
VWidth: 4730
Flags: HMW
LayerCount: 2
Fore
SplineSet
913 1884 m 1
 913 -49 l 2
 913 -586 700 -1065 148 -1065 c 0
 -204 -1065 -418 -853 -418 -601 c 0
 -418 -413 -286 -304 -133 -304 c 0
 0 -304 148 -382 148 -566 c 0
 148 -748 18 -836 -160 -836 c 0
 -218 -836 -267 -798 -272 -762 c 1
 -263 -863 -110 -1002 115 -1002 c 0
 515 -1002 440 -437 440 83 c 2
 442 1827 l 1
 74 1827 l 1
 74 1884 l 1
 913 1884 l 1
EndSplineSet
EndChar

StartChar: kgreenlandic
Encoding: 312 312 306
GlifName: kgreenlandic
Width: 2519
VWidth: 4730
Flags: HMW
LayerCount: 2
Fore
SplineSet
2288 0 m 1
 1702 0 l 1
 840 1079 l 1
 1913 1884 l 1
 2003 1884 l 1
 1241 1295 l 1
 2288 0 l 1
1380 57 m 1
 2443 57 l 1
 2443 0 l 1
 1380 0 l 1
 1380 57 l 1
2273 1827 m 1
 1360 1827 l 1
 1360 1884 l 1
 2273 1884 l 1
 2273 1827 l 1
74 57 m 1
 1170 57 l 1
 1170 0 l 1
 74 0 l 1
 74 57 l 1
442 1827 m 1
 74 1827 l 1
 74 1884 l 1
 913 1884 l 1
 913 0 l 1
 442 0 l 1
 442 1827 l 1
EndSplineSet
EndChar

StartChar: breve
Encoding: 728 728 307
GlifName: breve
Width: 1187
VWidth: 4730
Flags: HMW
LayerCount: 2
Fore
SplineSet
180 3109 m 1
 180 2913 373 2826 594 2826 c 0
 815 2826 1008 2913 1008 3109 c 1
 1065 3109 l 1
 1065 2787 953 2519 594 2519 c 0
 235 2519 123 2787 123 3109 c 1
 180 3109 l 1
EndSplineSet
EndChar

StartChar: thorn
Encoding: 254 254 318
GlifName: thorn
Width: 2449
VWidth: 4730
Flags: HMW
LayerCount: 2
Fore
SplineSet
778 942 m 0
 778 1565 1018 1921 1458 1921 c 0
 1904 1921 2326 1556 2326 942 c 0
 2326 328 1904 -41 1458 -41 c 0
 1019 -41 778 319 778 942 c 0
819 942 m 0
 819 336 1088 55 1346 55 c 0
 1645 55 1784 386 1784 942 c 0
 1784 1498 1649 1825 1350 1825 c 0
 1087 1825 819 1548 819 942 c 0
61 -967 m 1
 1106 -967 l 1
 1106 -1024 l 1
 61 -1024 l 1
 61 -967 l 1
348 3015 m 1
 61 3015 l 1
 61 3072 l 1
 819 3072 l 1
 819 -1024 l 1
 348 -1024 l 1
 348 3015 l 1
EndSplineSet
EndChar

StartChar: Thorn
Encoding: 222 222 319
GlifName: T_horn
Width: 2611
Flags: HMW
LayerCount: 2
Fore
SplineSet
430 3072 m 1
 942 3072 l 1
 942 0 l 1
 430 0 l 1
 430 3072 l 1
61 57 m 1
 1311 57 l 1
 1311 0 l 1
 61 0 l 1
 61 57 l 1
61 3072 m 1
 1311 3072 l 1
 1311 3015 l 1
 61 3015 l 1
 61 3072 l 1
1393 737 m 2
 860 737 l 1
 860 795 l 1
 1321 795 l 2
 1714 795 1894 1232 1894 1597 c 0
 1894 1962 1714 2400 1321 2400 c 2
 860 2400 l 1
 860 2458 l 1
 1393 2458 l 2
 2134 2458 2468 2129 2468 1597 c 0
 2468 1065 2134 737 1393 737 c 2
EndSplineSet
EndChar

StartChar: Dcroat
Encoding: 272 272 320
GlifName: D_croat
Width: 2984
Flags: HMW
LayerCount: 2
Fore
SplineSet
446 3072 m 1
 958 3072 l 1
 958 0 l 1
 446 0 l 1
 446 3072 l 1
1306 0 m 2
 77 0 l 1
 77 57 l 1
 1306 57 l 2
 1998 57 2227 760 2227 1536 c 0
 2227 2312 1958 3015 1306 3015 c 2
 77 3015 l 1
 77 3072 l 1
 1306 3072 l 2
 2250 3072 2821 2428 2821 1536 c 0
 2821 644 2209 0 1306 0 c 2
87 1524 m 1
 1396 1524 l 1
 1396 1467 l 1
 87 1467 l 1
 87 1524 l 1
EndSplineSet
EndChar

StartChar: Lslash
Encoding: 321 321 324
GlifName: L_slash
Width: 2426
Flags: HMW
LayerCount: 2
Fore
SplineSet
61 1475 m 1
 1577 2376 l 1
 1577 2306 l 1
 61 1405 l 1
 61 1475 l 1
EndSplineSet
Refer: 23 76 N 1 0 0 1 0 0 2
EndChar

StartChar: lslash
Encoding: 322 322 325
GlifName: lslash
Width: 1354
VWidth: 4730
Flags: HMW
LayerCount: 2
Fore
SplineSet
53 1597 m 1
 1323 2376 l 1
 1323 2303 l 1
 53 1525 l 1
 53 1597 l 1
EndSplineSet
Refer: 49 108 N 1 0 0 1 0 0 2
EndChar

StartChar: eth
Encoding: 240 240 329
GlifName: eth
Width: 2395
VWidth: 4730
Flags: HMW
LayerCount: 2
Fore
SplineSet
492 2580 m 1
 2263 2580 l 1
 2263 2523 l 1
 492 2523 l 1
 492 2580 l 1
2192 1270 m 0
 2192 410 1779 -41 1141 -41 c 0
 503 -41 123 410 123 1024 c 0
 123 1720 617 2012 1051 2012 c 0
 1556 2012 1689 1636 1689 1147 c 1
 1648 1147 l 1
 1648 1642 1467 1920 1157 1920 c 0
 843 1920 665 1624 665 1024 c 0
 665 506 743 16 1128 16 c 0
 1513 16 1648 547 1648 1147 c 1
 1644 1446 l 1
 1644 2185 1153 3065 430 3065 c 1
 430 3113 l 1
 1414 3113 2192 2284 2192 1270 c 0
EndSplineSet
EndChar

StartChar: OE
Encoding: 338 338 330
GlifName: O_E_
Width: 3978
Flags: HMW
LayerCount: 2
Fore
SplineSet
1624 3015 m 1025,0,0
758 1536 m 0,0,0
 758 760 962 57 1624 57 c 1,0,0
 1563 0 l 1,0,0
 732 0 164 623 164 1536 c 0,0,0
 164 2449 732 3072 1563 3072 c 1,0,0
 1624 3015 l 1,0,0
 962 3015 758 2312 758 1536 c 0,0,0
EndSplineSet
Refer: 16 69 N 1 0 0 1 1496 0 2
EndChar

StartChar: germandbls
Encoding: 223 223 332
GlifName: germandbls
Width: 2973
VWidth: 4730
Flags: HMW
LayerCount: 2
Fore
SplineSet
1528 1647 m 1
 1528 1688 l 1
 2015 1688 2150 2077 2150 2339 c 0
 2150 2634 2026 3064 1610 3064 c 0
 1082 3064 922 2552 922 1970 c 2
 922 0 l 1
 430 0 l 1
 430 2011 l 2
 430 2741 952 3113 1620 3113 c 0
 2206 3113 2687 2792 2687 2380 c 0
 2687 1950 2351 1647 1528 1647 c 1
61 57 m 1
 1290 57 l 1
 1290 0 l 1
 61 0 l 1
 61 57 l 1
2810 686 m 0
 2810 235 2394 -41 1939 -41 c 0
 1607 -41 1354 200 1354 598 c 0
 1354 797 1495 905 1659 905 c 0
 1803 905 1931 813 1931 635 c 0
 1931 473 1787 369 1647 369 c 0
 1566 369 1478 410 1436 477 c 1
 1457 217 1670 21 1899 21 c 0
 2213 21 2274 393 2274 655 c 0
 2274 1040 2179 1634 1528 1634 c 1
 1528 1675 l 1
 2515 1675 2810 1218 2810 686 c 0
EndSplineSet
EndChar

StartChar: circumflex
Encoding: 710 710 335
GlifName: circumflex
Width: 1658
Flags: HMW
LayerCount: 2
Fore
SplineSet
827 2919 m 1
 233 2624 l 1
 205 2652 l 1
 676 3154 l 1
 983 3154 l 1
 1454 2652 l 1
 1425 2624 l 1
 827 2919 l 1
EndSplineSet
EndChar

StartChar: caron
Encoding: 711 711 336
GlifName: caron
Width: 1658
Flags: HMW
LayerCount: 2
Fore
SplineSet
828 2929 m 1
 1425 3224 l 1
 1454 3195 l 1
 983 2693 l 1
 676 2693 l 1
 205 3195 l 1
 233 3224 l 1
 828 2929 l 1
EndSplineSet
EndChar

StartChar: pi
Encoding: 960 960 337
GlifName: pi
Width: 2481
VWidth: 4730
Flags: HMW
LayerCount: 2
Fore
SplineSet
2338 422 m 1
 2244 135 2085 -41 1845 -41 c 0
 1611 -41 1417 68 1417 320 c 2
 1417 1720 l 1
 1888 1720 l 1
 1888 375 l 2
 1888 293 1938 224 2040 224 c 0
 2128 224 2217 286 2298 446 c 1
 2338 422 l 1
467 -41 m 0
 279 -41 174 64 174 197 c 0
 174 527 725 387 725 1143 c 2
 725 1843 l 1
 954 1843 l 1
 954 995 l 2
 954 348 777 -41 467 -41 c 0
2256 1884 m 1
 2256 1414 l 1
 225 1414 l 1
 225 1106 l 1
 168 1106 l 1
 168 1884 l 1
 2256 1884 l 1
EndSplineSet
EndChar

StartChar: uni1E9E
Encoding: 7838 7838 338
GlifName: uni1E_9E_
Width: 3464
VWidth: 4730
Flags: HMW
LayerCount: 2
Fore
SplineSet
61 57 m 1
 1331 57 l 1
 1331 0 l 1
 61 0 l 1
 61 57 l 1
2320 1625 m 1
 2234 1650 1947 1691 1804 1700 c 1
 2762 2888 l 1
 2610 2969 2349 3053 2029 3053 c 0
 1275 3053 963 2501 963 1765 c 2
 963 0 l 1
 430 0 l 1
 430 1806 l 2
 430 2658 1126 3113 2029 3113 c 0
 2656 3113 3045 2842 3178 2697 c 1
 2320 1625 l 1
1435 456 m 1
 1465 274 1716 30 2124 30 c 0
 2586 30 2750 382 2750 798 c 0
 2750 1132 2650 1647 1804 1647 c 1
 1804 1700 l 1
 3027 1700 3301 1275 3301 804 c 0
 3301 262 2824 -41 2226 -41 c 0
 1613 -41 1331 292 1331 608 c 0
 1331 807 1459 930 1633 930 c 0
 1787 930 1906 824 1906 646 c 0
 1906 484 1766 369 1616 369 c 0
 1524 369 1455 421 1435 456 c 1
EndSplineSet
EndChar

StartChar: uni203D
Encoding: 8253 8253 339
GlifName: uni203D_
Width: 2580
Flags: HMW
LayerCount: 2
Fore
SplineSet
1581 2054 m 0
 1536 1661 1296 1211 1296 924 c 1
 1239 924 l 1
 1239 1211 1081 1661 1036 2054 c 0
 1032 2083 1032 2107 1032 2132 c 0
 1032 2247 1095 2439 1308 2439 c 0
 1521 2439 1585 2247 1585 2132 c 0
 1585 2107 1585 2083 1581 2054 c 0
277 2247 m 0
 277 2624 672 3113 1366 3113 c 0
 1984 3113 2437 2795 2437 2253 c 0
 2437 1741 1876 1372 1360 1372 c 1
 1360 1413 l 1
 1706 1452 1982 1894 1982 2294 c 0
 1982 2679 1718 3019 1272 3019 c 0
 716 3019 427 2634 387 2406 c 1
 407 2440 467 2488 561 2488 c 0
 711 2488 826 2365 826 2222 c 0
 826 2027 673 1942 551 1942 c 0
 407 1942 277 2048 277 2247 c 0
EndSplineSet
Refer: 1 46 N 1 0 0 1 795 0 2
EndChar

StartChar: R.alt
Encoding: 65536 -1 340
GlifName: R_.alt
Width: 2871
Flags: HMW
LayerCount: 2
Fore
SplineSet
1470 1569 m 2
 814 1569 l 1
 814 1606 l 1
 1418 1606 l 2
 1811 1606 2022 1848 2022 2314 c 0
 2022 2780 1811 3015 1418 3015 c 2
 77 3015 l 1
 77 3072 l 1
 1470 3072 l 2
 2119 3072 2555 2846 2555 2314 c 0
 2555 1782 2160 1569 1470 1569 c 2
77 57 m 1
 1449 57 l 1
 1449 0 l 1
 77 0 l 1
 77 57 l 1
506 3072 m 1
 1019 3072 l 1
 1019 0 l 1
 506 0 l 1
 506 3072 l 1
2832 0 m 1
 2766 0 2610 0 2463 0 c 0
 1447 0 2386 1548 1398 1548 c 2
 814 1548 l 1
 814 1577 l 1
 1602 1577 l 2
 2997 1577 2194 57 2688 57 c 0
 2774 57 2775 57 2832 57 c 1
 2832 0 l 1
EndSplineSet
EndChar

StartChar: J.alt
Encoding: 65537 -1 341
GlifName: J_.alt
Width: 2404
Flags: HMW
LayerCount: 2
Back
SplineSet
1191.93554688 3072 m 5
 2482.17578125 3072 l 5
 2482.17578125 2990.08007812 l 5
 1191.93554688 2990.08007812 l 5
 1191.93554688 3072 l 5
1683.45605469 3072 m 5
 2072.57617188 3072 l 5
 2072.57617188 1146.87988281 l 6
 2072.57617188 491.51953125 1748.9921875 -40.9599609375 1089.53613281 -40.9599609375 c 4
 610.303710938 -40.9599609375 409.599609375 307.200195312 409.599609375 593.919921875 c 4
 409.599609375 847.872070312 561.15234375 983.040039062 724.9921875 983.040039062 c 4
 868.3515625 983.040039062 995.328125 909.311523438 995.328125 720.896484375 c 4
 995.328125 577.536132812 864.255859375 462.84765625 724.9921875 462.84765625 c 4
 638.975585938 462.84765625 536.576171875 516.095703125 495.616210938 585.727539062 c 5
 499.711914062 335.872070312 655.360351562 40.9599609375 1089.53613281 40.9599609375 c 4
 1585.15234375 40.9599609375 1683.45605469 450.559570312 1683.45605469 1024 c 6
 1683.45605469 3072 l 5
EndSplineSet
Fore
SplineSet
920 3072 m 1
 2344 3072 l 1
 2344 3015 l 1
 920 3015 l 1
 920 3072 l 1
1422 3072 m 1
 1934 3072 l 1
 1934 1034 l 1
 1872 420 1539 -62 849 -62 c 0
 339 -62 77 307 77 635 c 0
 77 920 259 1075 454 1075 c 0
 628 1075 776 971 776 757 c 0
 776 583 622 442 443 442 c 0
 314 442 196 506 149 596 c 1
 165 299 402 -2 828 -2 c 0
 1293 -2 1422 389 1422 962 c 2
 1422 3072 l 1
EndSplineSet
EndChar

StartChar: four.alt
Encoding: 65538 -1 342
GlifName: four.alt
Width: 2559
VWidth: 4730
Flags: HMW
LayerCount: 2
Fore
SplineSet
2294 57 m 1
 2294 0 l 1
 1085 0 l 1
 1085 57 l 1
 2294 57 l 1
1987 2040 m 1
 1987 -4 l 1
 1475 -4 l 1
 1475 1907 l 1
 1629 1907 1885 1978 1987 2040 c 1
164 818 m 1
 2355 818 l 1
 2355 761 l 1
 61 761 l 1
 634 1580 1290 2458 1372 3072 c 1
 1917 3072 l 1
 1839 2427 742 1613 164 818 c 1
EndSplineSet
EndChar

StartChar: fj.lig
Encoding: 65539 -1 343
GlifName: fj.lig
Width: 2367
VWidth: 4730
Flags: HMW
LayerCount: 2
Back
SplineSet
40.9599609375 81.919921875 m 5
 1515.51953125 81.919921875 l 5
 1515.51953125 0 l 5
 40.9599609375 0 l 5
 40.9599609375 81.919921875 l 5
409.599609375 2097.15234375 m 2
 409.599609375 2756.60839844 929.791992188 3112.95996094 1748.9921875 3112.95996094 c 0
 2203.6484375 3112.95996094 2498.55957031 2859.0078125 2498.55957031 2584.57617188 c 0
 2498.55957031 2334.71972656 2347.0078125 2166.78417969 2101.24804688 2166.78417969 c 0
 1875.96777344 2166.78417969 1667.07226562 2306.04785156 1667.07226562 2551.80761719 c 0
 1667.07226562 2797.56835938 1826.81640625 2949.12011719 2048 2949.12011719 c 0
 2146.30371094 2949.12011719 2199.55175781 2916.3515625 2199.55175781 2916.3515625 c 1
 2134.015625 2957.31152344 1982.46386719 3026.94433594 1748.9921875 3026.94433594 c 0
 1298.43164062 3026.94433594 1146.87988281 2732.03222656 1146.87988281 2211.83984375 c 2
 1146.87988281 0 l 1
 409.599609375 0 l 1
 409.599609375 2097.15234375 l 2
2498.55957031 1884.16015625 m 1
 2498.55957031 -49.15234375 l 2
 2498.55957031 -585.727539062 1978.36816406 -1064.95996094 1363.96777344 -1064.95996094 c 0
 950.272460938 -1064.95996094 614.400390625 -872.448242188 614.400390625 -557.055664062 c 0
 614.400390625 -307.200195312 806.912109375 -118.784179688 1052.671875 -118.784179688 c 0
 1277.95214844 -118.784179688 1486.84765625 -258.047851562 1486.84765625 -503.807617188 c 0
 1486.84765625 -749.568359375 1327.10351562 -897.024414062 1024 -897.024414062 c 0
 1011.71191406 -897.024414062 995.328125 -897.024414062 995.328125 -897.024414062 c 1
 1040.38378906 -917.50390625 1122.30371094 -966.65625 1302.52832031 -966.65625 c 0
 1794.04785156 -966.65625 1720.3203125 -438.272460938 1720.3203125 81.919921875 c 2
 1720.3203125 1802.24023438 l 1
 40.9599609375 1802.24023438 l 1
 40.9599609375 1884.16015625 l 1
 2498.55957031 1884.16015625 l 1
EndSplineSet
Fore
SplineSet
56 57 m 1
 1270 57 l 1
 1270 0 l 1
 56 0 l 1
 56 57 l 1
2038 -49 m 2
 2038 -586 1824 -1065 1272 -1065 c 0
 920 -1065 706 -857 706 -603 c 0
 706 -415 838 -304 992 -304 c 0
 1125 -304 1272 -382 1272 -566 c 0
 1272 -750 1139 -836 966 -836 c 0
 913 -836 864 -799 852 -764 c 1
 865 -873 1023 -1002 1242 -1002 c 0
 1642 -1002 1567 -438 1567 82 c 2
 1567 1827 l 1
 56 1827 l 1
 56 1884 l 1
 2038 1884 l 1
 2038 -49 l 2
1913 2819 m 1
 1893 2914 1751 3055 1426 3055 c 0
 1006 3055 886 2732 886 2212 c 2
 886 0 l 1
 425 0 l 1
 425 2097 l 2
 425 2665 761 3113 1426 3113 c 0
 1850 3113 2054 2889 2054 2646 c 0
 2054 2458 1932 2352 1778 2352 c 0
 1645 2352 1498 2430 1498 2614 c 0
 1498 2798 1630 2884 1784 2884 c 0
 1852 2884 1898 2848 1913 2819 c 1
EndSplineSet
LCarets2: 1 0
Ligature2: "'liga' Standard Ligatures lookup 0-1" f j
EndChar

StartChar: uni2116
Encoding: 8470 8470 344
Width: 4570
Flags: HW
LayerCount: 2
Fore
SplineSet
3420 2335 m 0
 3420 1868 3511 1614 3733 1614 c 0
 3955 1614 4046 1868 4046 2335 c 0
 4046 2802 3955 3056 3733 3056 c 0
 3511 3056 3420 2802 3420 2335 c 0
3010 2335 m 0
 3010 2837 3309 3113 3733 3113 c 0
 4157 3113 4457 2837 4457 2335 c 0
 4457 1833 4157 1556 3733 1556 c 0
 3309 1556 3010 1833 3010 2335 c 0
EndSplineSet
Refer: 85 45 N 1 0 0 1 2997 164 2
Refer: 25 78 N 1 0 0 1 0 0 2
EndChar

StartChar: Euro
Encoding: 8364 8364 345
Width: 2938
Flags: HW
LayerCount: 2
Fore
SplineSet
2603 2689 m 1
 2529 2834 2298 3048 1942 3048 c 0
 1301 3048 1086 2290 1086 1536 c 0
 1086 700 1356 37 1854 37 c 0
 2256 37 2542 369 2644 729 c 1
 2706 729 l 1
 2600 332 2290 -41 1774 -41 c 0
 1105 -41 481 594 481 1536 c 0
 481 2396 1026 3113 1880 3113 c 0
 2411 3113 2734 2746 2734 2502 c 0
 2734 2303 2603 2197 2449 2197 c 0
 2316 2197 2165 2283 2165 2478 c 0
 2165 2652 2299 2755 2449 2755 c 0
 2526 2755 2582 2713 2603 2689 c 1
EndSplineSet
Refer: 88 61 N 1 0 0 1 -123 -287 2
EndChar

